<?xml version="1.0" encoding="UTF-8"?>
<svg version="1.1" viewBox="0 0 2000 2000" width="1280" height="1280" xmlns="http://www.w3.org/2000/svg">
<path transform="translate(1023,105)" d="m0 0h183l9 2 9 6 7 7 15 20 13 19 9 12 26 36 10 14 26 36 12 17 26 36 10 14 26 36 10 14 13 18 10 14 39 54 10 13 7 5 3-3 1-4 1-345 3-12 4-5 5-3 5-1h159l8 3 3 4 1 4v743l-4 6-7 5-4 1-13 1h-139l-11-2-9-6-10-12-14-19-13-18-12-16-13-18-16-21-12-17-15-20-14-19-13-18-3-4 1-6 12-19 12-20 5-13 1-4v-9l-4-11-4-5-10-6-5-2-6-1-72-1-5-5-10-13-13-18-12-16-13-18-14-19-16-21-6-7-5-2-1 19v99l-24 4-12 5-10 9-8 13-16 29-15 28-12 22-13 24-13 23-11 21-13 23-13 25-9 16-4 5-13-23-5-9-1-5v-670l3-9 6-7z" fill="#FEFEFE"/>
<path transform="translate(1324,1129)" d="m0 0h34l31 2 38 5 35 7 27 7 26 9 29 13 14 7 23 14 11 9 14 12 7 7 9 11 8 10 5 11 1 6-4 8-7 7-17 12-18 13-19 14-54 39-8 4-8 1-7-4-11-9-13-12-11-9-8-6-19-12-13-6-9-3-22-4-19-2h-40l-19 2-22 5-13 5-10 6-10 9-6 8-4 11v14l4 11 8 10 14 9 20 8 21 6 73 19 65 17 52 14 20 7 18 8 24 12 18 12 14 11 15 14 10 11 12 17 9 14 8 16 8 19 6 21 4 20 2 21v38l-3 26-6 24-8 22-10 21-12 19-8 10-11 13-7 8-8 7-14 12-10 7-17 11-18 10-26 12-28 10-22 6-31 6-37 5-25 2-35 1-50-3-42-5-27-5-37-9-44-15-29-13-23-12-20-13-12-9-11-9-18-18-11-14-8-13-5-12v-7l5-8 10-9 16-11 57-39 23-16 14-8 10-3h8l8 3 9 8 9 11 11 12 15 15 11 9 14 9 11 6 19 8 22 5 29 4 13 1h29l21-2 19-3 19-5 15-6 16-10 4-4h2l2-4 6-11 2-9v-12l-3-10-7-11-8-8-11-7-10-5-18-6-161-40-35-11-18-6-30-14-11-7-19-13-10-8-15-14-16-16-11-14-10-15-12-22-8-21-6-21-4-24v-7l74-1 16-4 11-6 7-8 4-8 3-13 1-172 8-5 27-14 27-10 23-7 31-7 28-4 22-2z" fill="#FEFEFE"/>
<path transform="translate(327,105)" d="m0 0h568l7 2 6 7 1 3 1 11v28l-1 89-1 12-5 10-5 4-9 3-10 1-316 1-7 3-5 5-2 6v96l3 10 5 4 9 3 190 1 9 2 6 5 3 7v141l-6 9-5 2-204 1-6 4-4 6v113l1 6 8 2 91 1 10 16 12 20 13 21 28 46 13 21 14 23 12 19-1 3h-412l-10-1-10-6-4-8-1-7v-727l3-9 6-7z" fill="#FEFEFE"/>
<path transform="translate(372,1139)" d="m0 0h493l1 1v168l-3 1-258 1-9 4-4 6-1 4v107l3 9 5 3 10 2 192 1 7 1 7 6 3 7v139l-4 6-4 4-12 2-197 1-6 3-3 4-1 4-1 253-2 14-4 7-6 5-9 3-12 1h-180l-9-2-6-4-5-7-2-8-1-24v-60l1-644 3-9 4-5 5-3z" fill="#FEFEFE"/>
<path transform="translate(646,624)" d="m0 0h219l6 7 14 25 16 29 13 23 12 22 13 23 13 24 13 23 32 58 9 15 5 6 8 4 3 1h9l9-4 6-5 12-21 14-26 12-22 14-26 12-22 16-29 16-30 13-23 13-25 12-21 5-6h166v3l-6 9-12 20-12 19-16 26-13 21-15 24-11 18-15 24-14 23-12 19-16 26-13 21-15 24-13 21-16 26-15 24-13 21-12 20-6 13-3 12-1 10-1 295-2 7-4 2-11 1h-173l-7-2-1-289-3-16-7-17-12-20-11-18-13-21-17-28-16-26-14-23-16-26-17-28-13-21-28-46-13-21-14-23-13-21-45-74-5-7z" fill="#FEFEFE"/>
</svg>
