<?xml version="1.0" encoding="UTF-8"?>
<svg version="1.1" xmlns="http://www.w3.org/2000/svg" width="435" height="435">
<path d="M0 0 C0.72703125 -0.02578125 1.4540625 -0.0515625 2.203125 -0.078125 C9.73538009 0.89228823 16.7029962 5.89642924 23.1875 9.5625 C24.28715088 10.18133057 25.38680176 10.80016113 26.51977539 11.43774414 C35.95339003 16.76340001 45.31443921 22.20952701 54.66015625 27.6875 C60.96570521 31.3821337 67.29301324 35.03840581 73.625 38.6875 C74.69717773 39.30568604 75.76935547 39.92387207 76.87402344 40.56079102 C82.46240137 43.78192804 88.05286514 46.99941864 93.64453125 50.21484375 C99.07994751 53.34111904 104.50827446 56.47942187 109.93310547 59.62402344 C112.44994792 61.07680301 114.97508576 62.51353377 117.50390625 63.9453125 C132.755989 72.67203809 132.755989 72.67203809 135.32004166 81.9409523 C136.27771424 87.08403582 136.04430422 92.35647879 136.04052734 97.56982422 C136.04651916 98.91584646 136.0533262 100.26186527 136.06088257 101.60787964 C136.07848198 105.24846773 136.08323533 108.88896169 136.08451414 112.52958822 C136.08593958 114.80800564 136.09021655 117.08639942 136.09550858 119.36481094 C136.11398778 127.3244401 136.12218171 135.28400245 136.12060547 143.24365234 C136.11940417 150.64583429 136.14050947 158.04772462 136.1720928 165.4498328 C136.19829928 171.82035175 136.20897096 178.19077568 136.20769465 184.56134808 C136.20718636 188.35945288 136.21279553 192.1572982 136.23405075 195.95534897 C136.25350768 199.52928995 136.25350749 203.10272586 136.23901749 206.67668533 C136.23595157 208.60125443 136.25255296 210.525824 136.26989746 212.45031738 C136.20926338 220.85923763 135.17431822 228.11067466 129 234.25 C124.22566173 237.93334693 118.82535349 240.69856633 113.55078125 243.58984375 C108.1414975 246.56375934 102.82331754 249.68806737 97.5 252.8125 C88.61544886 258.01542705 79.6956895 263.15324807 70.75 268.25 C61.97586418 273.2506029 53.22056478 278.28129943 44.5 283.375 C43.5399707 283.93533936 42.57994141 284.49567871 41.59082031 285.07299805 C36.4070011 288.10212348 31.23173922 291.14527877 26.0625 294.19921875 C24.96454102 294.84552246 23.86658203 295.49182617 22.73535156 296.15771484 C20.6254365 297.39990903 18.51789202 298.6461412 16.41308594 299.89697266 C15.46723633 300.45304199 14.52138672 301.00911133 13.546875 301.58203125 C12.71510742 302.07421143 11.88333984 302.5663916 11.02636719 303.07348633 C6.46454592 305.43121013 1.8353363 305.79931227 -3.25 305.25 C-5.79489553 304.31879959 -7.89977601 303.40101494 -10.25 302.125 C-11.26078613 301.5980957 -11.26078613 301.5980957 -12.29199219 301.06054688 C-20.58048187 296.66709355 -28.64015662 291.84997939 -36.71875 287.0859375 C-43.44537403 283.12276028 -50.21728309 279.24114982 -57 275.375 C-58.17473789 274.70485955 -59.34946115 274.03469345 -60.52416992 273.36450195 C-62.8978384 272.01058727 -65.27181021 270.65720637 -67.64599609 269.30419922 C-78.18681511 263.29688865 -88.72038557 257.27692592 -99.25 251.25 C-100.21454102 250.69876465 -101.17908203 250.1475293 -102.17285156 249.57958984 C-104.7630253 248.09810643 -107.35070002 246.61236439 -109.9375 245.125 C-110.66074463 244.71209717 -111.38398926 244.29919434 -112.12915039 243.8737793 C-131.30650707 232.81157249 -131.30650707 232.81157249 -134.25 222.25 C-134.50447559 219.36324501 -134.50447559 219.36324501 -134.51069641 216.30532837 C-134.51778122 215.13907425 -134.52486603 213.97282013 -134.53216553 212.77122498 C-134.52968811 211.50561234 -134.52721069 210.23999969 -134.5246582 208.93603516 C-134.52900934 207.57868673 -134.53419382 206.22134076 -134.54014587 204.86399841 C-134.55350483 201.18828613 -134.55411796 197.51267687 -134.55158257 193.83694506 C-134.55051063 190.76303866 -134.555402 187.68915291 -134.560188 184.61525095 C-134.57127271 177.36002128 -134.5717266 170.1048434 -134.56567383 162.84960938 C-134.55963582 155.3776081 -134.57194296 147.90579522 -134.5932439 140.43382609 C-134.61088745 134.00729413 -134.61685687 127.58082199 -134.61360615 121.15426672 C-134.61179735 117.32101973 -134.614389 113.48790711 -134.62832069 109.65468216 C-134.64093919 106.04798977 -134.63891729 102.44158995 -134.62590981 98.83490181 C-134.62243438 96.88987076 -134.63369267 94.94483061 -134.64547729 92.99983215 C-134.60148212 85.64947913 -134.33664536 79.24814116 -129.67504883 73.20996094 C-123.57119848 68.15145669 -116.85524911 64.33152306 -109.9375 60.5 C-108.67536376 59.79147861 -107.41381391 59.08191171 -106.15283203 58.37133789 C-103.6554902 56.96480772 -101.15604695 55.56214397 -98.65478516 54.16259766 C-94.28847767 51.70987624 -89.95263396 49.20763127 -85.625 46.6875 C-84.12384239 45.81615731 -82.62253719 44.94506883 -81.12109375 44.07421875 C-80.34878418 43.6261084 -79.57647461 43.17799805 -78.78076172 42.71630859 C-73.75380635 39.80371995 -68.72022878 36.90259706 -63.6875 34 C-62.59429443 33.36932617 -61.50108887 32.73865234 -60.37475586 32.08886719 C-54.71974706 28.82675915 -49.06369546 25.56647413 -43.40625 22.30859375 C-41.16661295 21.0183224 -38.92702882 19.7279592 -36.6875 18.4375 C-35.60903809 17.81633301 -34.53057617 17.19516602 -33.41943359 16.55517578 C-26.32713617 12.4645976 -19.25733059 8.33794853 -12.23413086 4.12963867 C-8.08809127 1.66412141 -4.84073615 0.10155391 0 0 Z " fill="#194F70" transform="translate(286.25,64.75)"/>
<path d="M0 0 C7.61716434 4.9987641 11.85041089 11.15361404 14 20 C15.32617738 31.27250774 13.0759153 40.05394976 8 50 C9.65 51.65 11.3 53.3 13 55 C12.34 56.65 11.68 58.3 11 60 C10.34 60 9.68 60 9 60 C9 60.66 9 61.32 9 62 C6.06221963 61.56477328 4.9697717 60.97196443 2.73828125 58.90234375 C0.15218728 56.70434577 0.15218728 56.70434577 -2.9453125 57.08203125 C-3.99460937 57.32308594 -5.04390625 57.56414062 -6.125 57.8125 C-14.56981079 59.40604057 -22.49678603 59.66423503 -30.15625 55.28515625 C-37.7484713 49.99312064 -42.19071062 43.09765318 -44 34 C-44.80996869 23.3769491 -43.53846102 14.16717378 -36.671875 5.75390625 C-27.33006054 -4.04626826 -12.06948485 -6.54503314 0 0 Z " fill="#F8FBFB" transform="translate(302,166)"/>
<path d="M0 0 C0 3.96 0 7.92 0 12 C-0.99 12 -1.98 12 -3 12 C-3 10.68 -3 9.36 -3 8 C-4.32 8 -5.64 8 -7 8 C-7.33 10.31 -7.66 12.62 -8 15 C-8.66 14.67 -9.32 14.34 -10 14 C-12.3400417 14.28241883 -14.67504723 14.61250787 -17 15 C-17.33 16.32 -17.66 17.64 -18 19 C-16.7625 18.979375 -15.525 18.95875 -14.25 18.9375 C-11.92665317 18.92529327 -10.16724706 18.94931907 -7.9375 19.625 C-5.75796267 20.20441834 -5.75796267 20.20441834 -2.75 19 C1.73368891 17.80434963 4.47591645 18.20630113 9 19 C9.98120464 22.05263664 9.98120464 23.94736336 9 27 C6.69 27.33 4.38 27.66 2 28 C2 26.68 2 25.36 2 24 C1.505 25.485 1.505 25.485 1 27 C-1.31 27 -3.62 27 -6 27 C-6.495 25.02 -6.495 25.02 -7 23 C-7.66 23 -8.32 23 -9 23 C-9.144375 23.639375 -9.28875 24.27875 -9.4375 24.9375 C-10 27 -10 27 -11 28 C-14.06481021 28.1613058 -16.05549278 27.98150241 -19 27 C-20.32 27 -21.64 27 -23 27 C-23.66 25.02 -24.32 23.04 -25 21 C-25.99 21 -26.98 21 -28 21 C-28.68707555 23.49064888 -29 25.37886292 -29 28 C-30.65 28 -32.3 28 -34 28 C-34.33 26.02 -34.66 24.04 -35 22 C-35.66 22 -36.32 22 -37 22 C-37 23.65 -37 25.3 -37 27 C-38.65614657 27.38218767 -40.32457024 27.71395102 -42 28 C-43 27 -43 27 -43.125 24 C-43 21 -43 21 -42 20 C-40.845 19.855625 -39.69 19.71125 -38.5 19.5625 C-37.345 19.376875 -36.19 19.19125 -35 19 C-34.67 18.34 -34.34 17.68 -34 17 C-33.34 17 -32.68 17 -32 17 C-31.67 16.01 -31.34 15.02 -31 14 C-32.32 14 -33.64 14 -35 14 C-35 13.34 -35 12.68 -35 12 C-35.86625 12.556875 -35.86625 12.556875 -36.75 13.125 C-39 14 -39 14 -41.1875 13.625 C-44.16022716 10.95979634 -43.74928962 7.88601088 -44 4 C-44.99 6.64 -45.98 9.28 -47 12 C-48.65 12 -50.3 12 -52 12 C-52 9.03 -52 6.06 -52 3 C-52.99 3 -53.98 3 -55 3 C-55 5.97 -55 8.94 -55 12 C-55.99 12 -56.98 12 -58 12 C-58 8.37 -58 4.74 -58 1 C-45.98181423 0.13826069 -34.04753921 -0.11902069 -22 0 C-22 0.99 -22 1.98 -22 3 C-23.98 3 -25.96 3 -28 3 C-28 3.66 -28 4.32 -28 5 C-26.35 5 -24.7 5 -23 5 C-22.87625 5.598125 -22.7525 6.19625 -22.625 6.8125 C-22.04524015 9.26231348 -22.04524015 9.26231348 -20 12 C-20.350625 11.443125 -20.70125 10.88625 -21.0625 10.3125 C-22.2500817 7.3831318 -21.99130348 5.97391045 -21 3 C-19.31505916 0.51692929 -18.23942162 0.06124739 -15.3125 -0.6875 C-9.99785108 -1.18888197 -5.23329081 -1.3083227 0 0 Z " fill="#194C6D" transform="translate(293,245)"/>
<path d="M0 0 C4.32698088 2.06649184 6.988267 5.74087384 9 10 C9.40411072 13.05145574 9.37416371 16.0516806 9.3125 19.125 C9.31733398 20.34123047 9.31733398 20.34123047 9.32226562 21.58203125 C9.26756912 27.59864631 9.26756912 27.59864631 7 31 C4.33333333 29.66666667 1.66666667 28.33333333 -1 27 C-3.14567913 28.72855926 -3.14567913 28.72855926 -5 31 C-4.81367553 34.07435378 -3.75085936 35.37371096 -2 38 C-7.484671 38.33579618 -11.23803089 37.82190762 -16 35 C-19.77317167 31.5499715 -20.87565137 28.17361424 -21.41015625 23.12890625 C-21.45876301 21.71145444 -21.48850908 20.29323842 -21.5 18.875 C-21.50636475 18.1941333 -21.51272949 17.5132666 -21.51928711 16.81176758 C-21.36481479 10.6769032 -19.4785473 6.74392758 -15.5625 2.125 C-11.04923315 -1.35892529 -5.37465753 -0.92158051 0 0 Z " fill="#194E6D" transform="translate(293,175)"/>
<path d="M0 0 C1.03125 0.350625 2.0625 0.70125 3.125 1.0625 C6.87957329 2.24258628 6.87957329 2.24258628 10.25 1.4375 C13 1 13 1 14.875 2 C16.55565656 4.98783389 16.18661859 7.64086534 16 11 C16 11.33 16 11.66 16 12 C16.33 8.7 16.66 5.4 17 2 C17.99 1.67 18.98 1.34 20 1 C20 3.97 20 6.94 20 10 C21.98 10 23.96 10 26 10 C26.185625 8.329375 26.185625 8.329375 26.375 6.625 C27 3 27 3 29 1 C34.45454545 1.45454545 34.45454545 1.45454545 37 4 C36.9765625 6.8203125 36.9765625 6.8203125 36.625 10.125 C36.51414062 11.22070312 36.40328125 12.31640625 36.2890625 13.4453125 C36.19367188 14.28835938 36.09828125 15.13140625 36 16 C34.41693353 16.16918268 32.83353281 16.33523936 31.25 16.5 C30.36828125 16.5928125 29.4865625 16.685625 28.578125 16.78125 C26 17 26 17 22 17 C22.99 18.0828125 22.99 18.0828125 24 19.1875 C26 22 26 22 26.4375 24.625 C25.92524622 27.40580624 25.26358653 28.34584061 23 30 C22.34 30 21.68 30 21 30 C20.67 30.66 20.34 31.32 20 32 C19.67 31.01 19.34 30.02 19 29 C18.34 29 17.68 29 17 29 C16.67 29.66 16.34 30.32 16 31 C16 29.68 16 28.36 16 27 C14.68 27.33 13.36 27.66 12 28 C12.1875 24.6875 12.1875 24.6875 13 21 C15.87924492 18.65114231 17.27472933 18 21 18 C21 17.34 21 16.68 21 16 C19.33710938 16.12568359 19.33710938 16.12568359 17.640625 16.25390625 C16.17710672 16.35710305 14.71356369 16.45994926 13.25 16.5625 C12.15558594 16.64661133 12.15558594 16.64661133 11.0390625 16.73242188 C7.45046349 16.97709908 4.44972775 16.99666259 1 16 C0.67 16.66 0.34 17.32 0 18 C-0.99 18 -1.98 18 -3 18 C-2.67 16.35 -2.34 14.7 -2 13 C-3.32 13 -4.64 13 -6 13 C-6 9.04 -6 5.08 -6 1 C-2 2 -2 2 -0.75 4.0625 C-0.5025 4.701875 -0.255 5.34125 0 6 C0 4.02 0 2.04 0 0 Z " fill="#214C66" transform="translate(300,244)"/>
<path d="M0 0 C4.53029702 0.44414677 8.8921897 0.99386009 13 3 C14.50484396 6.00968791 15.13988588 7.96484447 14.6875 11.3125 C14 13 14 13 13 14 C10.81360547 14.07258946 8.62499611 14.08373783 6.4375 14.0625 C4.64119141 14.04896484 4.64119141 14.04896484 2.80859375 14.03515625 C1.88175781 14.02355469 0.95492187 14.01195312 0 14 C0 14.66 0 15.32 0 16 C-1.65 16 -3.3 16 -5 16 C-5.33 16.66 -5.66 17.32 -6 18 C-9.63 17.67 -13.26 17.34 -17 17 C-16.34 16.67 -15.68 16.34 -15 16 C-15.495 15.484375 -15.99 14.96875 -16.5 14.4375 C-18.54644269 11.11203064 -18.41857482 8.83693587 -18 5 C-16.921875 3.32421875 -16.921875 3.32421875 -15 2 C-11.6796875 1.5234375 -11.6796875 1.5234375 -7.875 1.375 C-3.61808686 1.58284708 -3.61808686 1.58284708 0 0 Z " fill="#315168" transform="translate(219,243)"/>
<path d="M0 0 C0.33 0 0.66 0 1 0 C1 1.65 1 3.3 1 5 C0.34 5 -0.32 5 -1 5 C-1.33 53.51 -1.66 102.02 -2 152 C-3.98503849 148.02992302 -4.25203802 146.5597456 -4.26069641 142.2958374 C-4.26778122 141.13233261 -4.27486603 139.96882782 -4.28216553 138.77006531 C-4.27968811 137.49726212 -4.27721069 136.22445892 -4.2746582 134.91308594 C-4.27900658 133.55603251 -4.28419015 132.19898153 -4.29014587 130.8419342 C-4.30353738 127.15783945 -4.30411412 123.47384728 -4.30158257 119.78973293 C-4.30051242 116.71095622 -4.30539767 113.63220021 -4.310188 110.55342793 C-4.32128488 103.28576562 -4.32172035 96.01815497 -4.31567383 88.75048828 C-4.30964051 81.26375983 -4.32192822 73.77721962 -4.3432439 66.29052329 C-4.36088868 59.85553917 -4.36685651 53.42061479 -4.36360615 46.98560739 C-4.36179686 43.14562378 -4.36439346 39.3057743 -4.37832069 35.46581268 C-4.39094043 31.85093927 -4.3889161 28.23635775 -4.37590981 24.62148857 C-4.3724342 22.67166755 -4.383693 20.72183746 -4.39547729 18.77204895 C-4.30912314 4.30912314 -4.30912314 4.30912314 0 0 Z " fill="#B0BAC1" transform="translate(156,139)"/>
<path d="M0 0 C1.03125 0.350625 2.0625 0.70125 3.125 1.0625 C6.87957329 2.24258628 6.87957329 2.24258628 10.25 1.4375 C13 1 13 1 14.875 2 C16.63061159 5.12108727 16.43755786 7.49953714 16 11 C14.375 12.9375 14.375 12.9375 12 14 C8.875 14.125 8.875 14.125 6 14 C5.01 14.495 5.01 14.495 4 15 C1.875 14.5625 1.875 14.5625 0 14 C0.33 15.32 0.66 16.64 1 18 C-0.32 18 -1.64 18 -3 18 C-2.67 16.35 -2.34 14.7 -2 13 C-3.32 13 -4.64 13 -6 13 C-6 9.04 -6 5.08 -6 1 C-2 2 -2 2 -0.75 4.0625 C-0.5025 4.701875 -0.255 5.34125 0 6 C0 4.02 0 2.04 0 0 Z " fill="#436178" transform="translate(300,244)"/>
<path d="M0 0 C0 3.96 0 7.92 0 12 C-0.99 12 -1.98 12 -3 12 C-3 10.68 -3 9.36 -3 8 C-4.32 8 -5.64 8 -7 8 C-7.33 10.31 -7.66 12.62 -8 15 C-8.66 14.67 -9.32 14.34 -10 14 C-10.928125 14.061875 -11.85625 14.12375 -12.8125 14.1875 C-16.87386627 13.9485961 -18.26352299 12.97103218 -21 10 C-22.0625 7 -22.0625 7 -22 4 C-20.02910163 1.08307041 -18.64156368 0.17497191 -15.25 -0.75 C-9.95942029 -1.15696767 -5.20387651 -1.30096913 0 0 Z " fill="#3C596A" transform="translate(293,245)"/>
<path d="M0 0 C0 0.99 0 1.98 0 3 C-0.99 3 -1.98 3 -3 3 C-3 5.97 -3 8.94 -3 12 C-7 14 -7 14 -9.1875 13.625 C-12.16022716 10.95979634 -11.74928962 7.88601088 -12 4 C-12.99 6.64 -13.98 9.28 -15 12 C-16.65 12 -18.3 12 -20 12 C-20 9.03 -20 6.06 -20 3 C-20.99 3 -21.98 3 -23 3 C-23 5.97 -23 8.94 -23 12 C-23.99 12 -24.98 12 -26 12 C-26 8.37 -26 4.74 -26 1 C-8.14350797 -0.14806378 -8.14350797 -0.14806378 0 0 Z " fill="#224F69" transform="translate(261,245)"/>
<path d="M0 0 C0.98120464 3.05263664 0.98120464 4.94736336 0 8 C-2.31 8.33 -4.62 8.66 -7 9 C-7 7.68 -7 6.36 -7 5 C-7.33 5.99 -7.66 6.98 -8 8 C-10.31 8 -12.62 8 -15 8 C-15.33 6.68 -15.66 5.36 -16 4 C-16.66 4 -17.32 4 -18 4 C-18.144375 4.639375 -18.28875 5.27875 -18.4375 5.9375 C-19 8 -19 8 -20 9 C-21.66617115 9.04063832 -23.33388095 9.042721 -25 9 C-25.66 6.69 -26.32 4.38 -27 2 C-25 0 -25 0 -22.125 -0.1875 C-19 0 -19 0 -17.0625 0.625 C-14.77634888 1.20412874 -14.77634888 1.20412874 -11.75 0 C-7.26631109 -1.19565037 -4.52408355 -0.79369887 0 0 Z " fill="#365E73" transform="translate(302,264)"/>
<path d="M0 0 C-0.33 0.66 -0.66 1.32 -1 2 C-1.07092842 4.2072923 -1.08415025 6.41667452 -1.0625 8.625 C-1.05347656 9.81351563 -1.04445313 11.00203125 -1.03515625 12.2265625 C-1.02355469 13.14179688 -1.01195312 14.05703125 -1 15 C-3.12472576 15.05386629 -5.24983652 15.09273071 -7.375 15.125 C-8.55835938 15.14820313 -9.74171875 15.17140625 -10.9609375 15.1953125 C-14 15 -14 15 -16 13 C-16.55263158 6.92105263 -16.55263158 6.92105263 -14.875 4.125 C-12.32615294 2.59569177 -9.92761527 2.32529059 -7 2 C-7 1.34 -7 0.68 -7 0 C-4.3333581 -1.33332095 -2.83319697 -0.67102033 0 0 Z " fill="#516F86" transform="translate(354,242)"/>
<path d="M0 0 C2.63567287 2.17218046 3.88529766 3.35392512 4.49219131 6.77232742 C4.48850414 7.84529446 4.48481697 8.91826149 4.48101807 10.02374268 C4.48651672 11.25770782 4.49201538 12.49167297 4.49768066 13.76303101 C4.48352506 15.12750634 4.46898584 16.49197773 4.45410156 17.85644531 C4.45297309 19.29544035 4.45360695 20.7344377 4.45587158 22.1734314 C4.45701967 26.07823043 4.43349543 29.98253838 4.40557575 33.88722324 C4.38057773 37.96847103 4.37822137 42.04972995 4.37347412 46.13104248 C4.36103961 53.85878196 4.32821167 61.5862952 4.28807616 69.31393504 C4.24337316 78.11189374 4.22137513 86.90986321 4.20129442 95.7079072 C4.15947938 113.80539975 4.08911818 131.90268169 4 150 C3.67 150 3.34 150 3 150 C2.99576806 149.33500079 2.99153612 148.67000158 2.98717594 147.98485088 C2.88364408 131.76622758 2.77497381 115.54764754 2.66066074 99.32909679 C2.6055012 91.48576973 2.55204867 83.64243813 2.50268555 75.79907227 C2.45963101 68.95878517 2.41330143 62.11852923 2.36312145 55.27829057 C2.33669062 51.66010286 2.3118439 48.04192065 2.29092598 44.42369652 C2.26745088 40.37380793 2.23666049 36.32400531 2.20532227 32.27416992 C2.1995668 31.08877121 2.19381134 29.9033725 2.18788147 28.68205261 C2.10331511 19.02895907 1.26311596 9.5635923 0 0 Z " fill="#244B63" transform="translate(416,140)"/>
<path d="M0 0 C0.66 0 1.32 0 2 0 C2 2.97 2 5.94 2 9 C3.98 9 5.96 9 8 9 C8.12375 7.88625 8.2475 6.7725 8.375 5.625 C9 2 9 2 11 0 C16.45454545 0.45454545 16.45454545 0.45454545 19 3 C19.32954432 6.09771665 19.45334601 8.17331023 17.9375 10.9375 C14.90045283 12.60297748 12.30163748 11.61141435 9 11 C8.67 11.33 8.34 11.66 8 12 C6.48071962 12.07179964 4.95832518 12.08392007 3.4375 12.0625 C2.61121094 12.05347656 1.78492188 12.04445313 0.93359375 12.03515625 C0.29550781 12.02355469 -0.34257812 12.01195312 -1 12 C-1.02687279 10.18757948 -1.04633715 8.37504767 -1.0625 6.5625 C-1.07410156 5.55316406 -1.08570313 4.54382813 -1.09765625 3.50390625 C-1 1 -1 1 0 0 Z " fill="#DFE9EC" transform="translate(318,245)"/>
<path d="M0 0 C2.97 0 5.94 0 9 0 C9 0.99 9 1.98 9 3 C7.02 3 5.04 3 3 3 C3 3.66 3 4.32 3 5 C4.65 5 6.3 5 8 5 C8.33 5.99 8.66 6.98 9 8 C10.89179203 8.6814823 10.89179203 8.6814823 13 9 C13.99 9.33 14.98 9.66 16 10 C16 9.34 16 8.68 16 8 C14.35 7.67 12.7 7.34 11 7 C10.375 4.625 10.375 4.625 10 2 C10.66 1.34 11.32 0.68 12 0 C15.125 0.375 15.125 0.375 18 1 C18 1.99 18 2.98 18 4 C15.525 3.505 15.525 3.505 13 3 C13 3.66 13 4.32 13 5 C14.65 5.33 16.3 5.66 18 6 C18.33 7.65 18.66 9.3 19 11 C16.28148823 12.35925589 14.00882974 12.06268395 11 12 C10.34 12 9.68 12 9 12 C6 12 3 12 0 12 C0 8.04 0 4.08 0 0 Z " fill="#F1F5F7" transform="translate(354,245)"/>
<path d="M0 0 C0.99905259 3.31923308 1.11867381 6.31714303 1.10679626 9.77577209 C1.10528061 10.95491684 1.10376495 12.13406158 1.10220337 13.34893799 C1.095466 14.63894714 1.08872864 15.9289563 1.08178711 17.25805664 C1.07823005 18.63307079 1.07514432 20.00808622 1.07249451 21.38310242 C1.06594848 24.34163504 1.05639239 27.30013735 1.04459953 30.25865364 C1.0263055 34.9350786 1.0167078 39.61149622 1.00868225 44.28794861 C0.98453013 57.58498348 0.94860278 70.88197347 0.90405273 84.17895508 C0.87951897 91.52456494 0.86214903 98.87015731 0.85249335 106.21580213 C0.84594374 110.86647385 0.8303716 115.51700159 0.80817592 120.16762364 C0.79646246 123.0576364 0.79307951 125.94761393 0.79207802 128.83764839 C0.7888996 130.82065147 0.77571501 132.80363055 0.76226807 134.78659058 C0.76357224 135.9629155 0.7648764 137.13924042 0.76622009 138.35121155 C0.76307769 139.37565904 0.75993528 140.40010653 0.75669765 141.45559788 C0.82089807 144.24374201 0.82089807 144.24374201 3 147 C3 147.99 3 148.98 3 150 C1 149 1 149 -1 147 C-1.24888897 144.49497223 -1.24888897 144.49497223 -1.24723816 141.26818848 C-1.25143265 140.04827713 -1.25562714 138.82836578 -1.25994873 137.57148743 C-1.25446485 136.21237104 -1.24878185 134.85325544 -1.24291992 133.49414062 C-1.24399239 132.06853651 -1.24593054 130.64293282 -1.24867249 129.21733093 C-1.25352964 125.33929674 -1.24585434 121.46137719 -1.23571944 117.58335686 C-1.22695284 113.53103637 -1.22869612 109.47871963 -1.2290802 105.4263916 C-1.22814291 98.62034175 -1.21945028 91.81433641 -1.20581055 85.00830078 C-1.19008434 77.13188318 -1.18481241 69.25551437 -1.1855461 61.3790822 C-1.18615585 53.81213737 -1.18105526 46.24520848 -1.17275429 38.67826843 C-1.16921761 35.45342382 -1.16739049 32.22858486 -1.16686058 29.0037384 C-1.16585814 25.20841999 -1.1597696 21.41314274 -1.14969444 17.61783791 C-1.14676651 16.22220423 -1.14554467 14.82656581 -1.14612198 13.43092918 C-1.14661055 11.53121886 -1.14035439 9.6315103 -1.13371277 7.73181152 C-1.13203692 6.66697289 -1.13036108 5.60213425 -1.12863445 4.50502777 C-1 2 -1 2 0 0 Z " fill="#244962" transform="translate(155,144)"/>
<path d="M0 0 C0.66 0 1.32 0 2 0 C2.66 0.66 3.32 1.32 4 2 C4.66 1.67 5.32 1.34 6 1 C6 1.99 6 2.98 6 4 C9.63 4 13.26 4 17 4 C17 4.33 17 4.66 17 5 C12.71 5 8.42 5 4 5 C4 8.63 4 12.26 4 16 C4.99 16 5.98 16 7 16 C7 13.03 7 10.06 7 7 C7.99 7 8.98 7 10 7 C10 9.97 10 12.94 10 16 C11.32 16.33 12.64 16.66 14 17 C13 18 13 18 10.671875 18.02734375 C8.73428296 17.96776539 6.7967775 17.90529654 4.859375 17.83984375 C2.00416441 17.84370107 2.00416441 17.84370107 -0.43359375 18.99609375 C-3.68261223 20.26701879 -6.33682898 20.19521558 -9.8125 20.125 C-10.97394531 20.10695313 -12.13539063 20.08890625 -13.33203125 20.0703125 C-14.21246094 20.04710937 -15.09289062 20.02390625 -16 20 C-16 19.34 -16 18.68 -16 18 C-14.68 18 -13.36 18 -12 18 C-12 17.34 -12 16.68 -12 16 C-9.00519083 15.1276588 -6.36424089 14.89170234 -3.25 14.9375 C-2.45078125 14.94652344 -1.6515625 14.95554688 -0.828125 14.96484375 C-0.22484375 14.97644531 0.3784375 14.98804688 1 15 C2.31359459 10.81119486 1.2660419 8.17049097 0 4 C0 2.68 0 1.36 0 0 Z " fill="#304B64" transform="translate(231,241)"/>
<path d="M0 0 C0.66 0.33 1.32 0.66 2 1 C0.82250192 2.17749808 -0.37774564 3.3341596 -1.625 4.4375 C-3.33031395 6.02846455 -3.33031395 6.02846455 -3 9 C-4.32 9.33 -5.64 9.66 -7 10 C-7 10.99 -7 11.98 -7 13 C-10 12 -10 12 -11 11 C-11.66 11 -12.32 11 -13 11 C-13 11.66 -13 12.32 -13 13 C-13.99 13 -14.98 13 -16 13 C-16 13.66 -16 14.32 -16 15 C-17.32 15.33 -18.64 15.66 -20 16 C-20 15.34 -20 14.68 -20 14 C-20.66 14 -21.32 14 -22 14 C-22 14.66 -22 15.32 -22 16 C-22.99 16 -23.98 16 -25 16 C-25 16.99 -25 17.98 -25 19 C-29.01786884 21.00893442 -31.43912556 22.12002301 -36 22 C-33.45653352 19.13615247 -30.57845158 17.45704146 -27.265625 15.56640625 C-26.13382813 14.91736328 -25.00203125 14.26832031 -23.8359375 13.59960938 C-22.6406886 12.92046098 -21.44537561 12.24142535 -20.25 11.5625 C-19.07006099 10.88780945 -17.89037093 10.21268335 -16.7109375 9.53710938 C-14.46270629 8.25113132 -12.21215373 6.96920067 -9.95898438 5.69189453 C-8.18924129 4.67998698 -6.42710491 3.65430825 -4.68164062 2.60107422 C-3.15274592 1.67938044 -1.58145435 0.82827567 0 0 Z " fill="#6E8696" transform="translate(215,103)"/>
<path d="M0 0 C2.67927341 4.01891012 2.15601248 6.24161923 2 11 C-1.95480412 12.31826804 -4.11391601 11.29536133 -8 10 C-9 9 -9 9 -9.25 5.625 C-9 2 -9 2 -7.875 0 C-4.98192987 -1.54297074 -3.06359725 -0.91256088 0 0 Z " fill="#EAEEF3" transform="translate(210,246)"/>
<path d="M0 0 C1.98 0.99 1.98 0.99 4 2 C3.979375 3.134375 3.95875 4.26875 3.9375 5.4375 C3.58422523 8.81575674 3.58422523 8.81575674 5 10 C7.18292774 10.23481693 9.37203174 10.41363323 11.5625 10.5625 C12.76003906 10.64628906 13.95757812 10.73007812 15.19140625 10.81640625 C16.11824219 10.87699219 17.04507812 10.93757813 18 11 C18 7.37 18 3.74 18 0 C18.33 0 18.66 0 19 0 C19 3.63 19 7.26 19 11 C21.97 11 24.94 11 28 11 C28.33 10.34 28.66 9.68 29 9 C29.33 9.33 29.66 9.66 30 10 C32.67058851 10.14115161 35.32432238 10.04247107 38 10 C38 10.99 38 11.98 38 13 C37.443125 12.97679687 36.88625 12.95359375 36.3125 12.9296875 C32.27006646 12.83408941 28.71355853 12.93821041 24.8125 14.0625 C20.92329992 15.01886068 18.84758488 14.76951698 15 14 C14.0925 14.185625 13.185 14.37125 12.25 14.5625 C11.5075 14.706875 10.765 14.85125 10 15 C9.34 14.34 8.68 13.68 8 13 C5.41645782 12.83312552 5.41645782 12.83312552 3 13 C1.18482812 9.14275976 0.90594663 6.23240187 1 2 C0.67 1.34 0.34 0.68 0 0 Z " fill="#375668" transform="translate(335,246)"/>
<path d="M0 0 C3.375 -0.125 3.375 -0.125 7 0 C9.24497221 2.24497221 9.37003419 2.96027349 9.75 6 C9.89695313 7.051875 9.89695313 7.051875 10.046875 8.125 C10 10 10 10 8 12 C5.31160615 12.26991906 2.70858064 12.08737357 0 12 C0 8.04 0 4.08 0 0 Z " fill="#C9D0D3" transform="translate(224,245)"/>
<path d="M0 0 C1.39456452 0.00667256 2.78911118 0.01863093 4.18359375 0.03515625 C4.89451172 0.03966797 5.60542969 0.04417969 6.33789062 0.04882812 C8.09899388 0.06064761 9.86005411 0.07858362 11.62109375 0.09765625 C11.29109375 0.86078125 10.96109375 1.62390625 10.62109375 2.41015625 C9.44672689 5.0883476 9.44672689 5.0883476 9.62109375 8.09765625 C7.97109375 8.09765625 6.32109375 8.09765625 4.62109375 8.09765625 C4.29109375 6.11765625 3.96109375 4.13765625 3.62109375 2.09765625 C2.96109375 2.09765625 2.30109375 2.09765625 1.62109375 2.09765625 C1.62109375 3.74765625 1.62109375 5.39765625 1.62109375 7.09765625 C-0.03505282 7.47984392 -1.70347649 7.81160727 -3.37890625 8.09765625 C-4.37890625 7.09765625 -4.37890625 7.09765625 -4.50390625 4.09765625 C-4.3273245 -0.14030563 -4.30869384 0.12452872 0 0 Z " fill="#4B6F84" transform="translate(254.37890625,264.90234375)"/>
<path d="M0 0 C0.98120464 3.05263664 0.98120464 4.94736336 0 8 C-2.31 8.33 -4.62 8.66 -7 9 C-7 7.68 -7 6.36 -7 5 C-7.99 6.485 -7.99 6.485 -9 8 C-9 6.02 -9 4.04 -9 2 C-9.66 2 -10.32 2 -11 2 C-11.33 2.99 -11.66 3.98 -12 5 C-12.99 3.68 -13.98 2.36 -15 1 C-9.4584498 -0.96263236 -5.79141983 -1.01603857 0 0 Z " fill="#31556A" transform="translate(302,264)"/>
<path d="M0 0 C0.33 0.66 0.66 1.32 1 2 C1.99 2.33 2.98 2.66 4 3 C4 4.98 4 6.96 4 9 C2.29159719 7.36587557 1.06546953 6.13093906 0 4 C-0.99 3.67 -1.98 3.34 -3 3 C-3 6.96 -3 10.92 -3 15 C-1.68 15 -0.36 15 1 15 C1.33 15.99 1.66 16.98 2 18 C0.68 18 -0.64 18 -2 18 C-2 18.66 -2 19.32 -2 20 C-4.64 19.34 -7.28 18.68 -10 18 C-10.33 15.69 -10.66 13.38 -11 11 C-9.68 11 -8.36 11 -7 11 C-7 12.32 -7 13.64 -7 15 C-6.01 15 -5.02 15 -4 15 C-4 10.71 -4 6.42 -4 2 C-2.68 1.34 -1.36 0.68 0 0 Z " fill="#1E4D6A" transform="translate(297,242)"/>
<path d="M0 0 C0.33 0.66 0.66 1.32 1 2 C-0.17483346 5.24868034 -1.51106222 6.63948342 -4.51953125 8.25390625 C-5.55883789 8.82334961 -5.55883789 8.82334961 -6.61914062 9.40429688 C-7.34294922 9.78650391 -8.06675781 10.16871094 -8.8125 10.5625 C-10.23595265 11.33412728 -11.65913593 12.10625172 -13.08203125 12.87890625 C-14.09450928 13.4205542 -14.09450928 13.4205542 -15.12744141 13.97314453 C-16.74194826 14.85849209 -18.31875876 15.81195567 -19.88671875 16.77734375 C-22 18 -22 18 -24 18 C-24 16.68 -24 15.36 -24 14 C-22.02 14 -20.04 14 -18 14 C-18 13.01 -18 12.02 -18 11 C-17.01 11 -16.02 11 -15 11 C-14.67 10.01 -14.34 9.02 -14 8 C-12.68 8 -11.36 8 -10 8 C-10.33 6.68 -10.66 5.36 -11 4 C-7.7 3.67 -4.4 3.34 -1 3 C-0.67 2.01 -0.34 1.02 0 0 Z " fill="#416679" transform="translate(412,296)"/>
<path d="M0 0 C4.29 0 8.58 0 13 0 C13 0.66 13 1.32 13 2 C12.01 2 11.02 2 10 2 C10 4.97 10 7.94 10 11 C8.68 11 7.36 11 6 11 C6 8.03 6 5.06 6 2 C5.01 2 4.02 2 3 2 C3 4.97 3 7.94 3 11 C2.01 11 1.02 11 0 11 C0 7.37 0 3.74 0 0 Z " fill="#ECF3F6" transform="translate(235,246)"/>
<path d="M0 0 C4 1 4 1 5.25 3.0625 C5.4975 3.701875 5.745 4.34125 6 5 C6.33 3.68 6.66 2.36 7 1 C7.99 1 8.98 1 10 1 C10 4.63 10 8.26 10 12 C6 11 6 11 4 8 C3.67 9.32 3.34 10.64 3 12 C2.01 12 1.02 12 0 12 C0 8.04 0 4.08 0 0 Z " fill="#E7EDF0" transform="translate(294,245)"/>
<path d="M0 0 C2.97 0 5.94 0 9 0 C9 0.99 9 1.98 9 3 C7.02 3 5.04 3 3 3 C3 3.66 3 4.32 3 5 C4.65 5 6.3 5 8 5 C8.33 7.31 8.66 9.62 9 12 C6.03 12 3.06 12 0 12 C0 8.04 0 4.08 0 0 Z " fill="#EDF3F5" transform="translate(262,245)"/>
<path d="M0 0 C0.66 0 1.32 0 2 0 C3.7945596 3.5891192 3.51897821 7.72913886 3.75 11.6875 C3.81832031 12.57373047 3.88664062 13.45996094 3.95703125 14.37304688 C4.29022933 20.14420851 3.71812508 23.87899631 1 29 C0.34 29 -0.32 29 -1 29 C-1.2165625 30.1446875 -1.2165625 30.1446875 -1.4375 31.3125 C-2 34 -2 34 -3 37 C-3.99 37 -4.98 37 -6 37 C-5.71382813 36.43023437 -5.42765625 35.86046875 -5.1328125 35.2734375 C-4.75898438 34.52320313 -4.38515625 33.77296875 -4 33 C-3.64679688 32.33226562 -3.29359375 31.66453125 -2.9296875 30.9765625 C1.46313035 21.18220566 0.36105992 10.49434545 0 0 Z " fill="#2B5066" transform="translate(315,179)"/>
<path d="M0 0 C2.4375 0.9375 2.4375 0.9375 3.75 3 C4.0903125 3.9590625 4.0903125 3.9590625 4.4375 4.9375 C3.4475 4.9375 2.4575 4.9375 1.4375 4.9375 C1.4375 4.2775 1.4375 3.6175 1.4375 2.9375 C0.4475 3.2675 -0.5425 3.5975 -1.5625 3.9375 C-1.8925 5.5875 -2.2225 7.2375 -2.5625 8.9375 C-1.9025 8.6075 -1.2425 8.2775 -0.5625 7.9375 C-0.5625 7.2775 -0.5625 6.6175 -0.5625 5.9375 C1.0875 5.9375 2.7375 5.9375 4.4375 5.9375 C4.4375 7.9175 4.4375 9.8975 4.4375 11.9375 C-1.6171875 12.1328125 -1.6171875 12.1328125 -3.5625 11.9375 C-5.5625 9.9375 -5.5625 9.9375 -5.875 6.5 C-5.5625 2.9375 -5.5625 2.9375 -4.375 0.9375 C-2.5625 -0.0625 -2.5625 -0.0625 0 0 Z " fill="#EAF0F4" transform="translate(343.5625,245.0625)"/>
<path d="M0 0 C2.4375 0.75 2.4375 0.75 5 2 C5.875 4 5.875 4 6 6 C5.67 6.66 5.34 7.32 5 8 C5.66 8 6.32 8 7 8 C7 6.02 7 4.04 7 2 C7.66 2 8.32 2 9 2 C9.33 4.31 9.66 6.62 10 9 C9.01 9.33 8.02 9.66 7 10 C6.67 10.66 6.34 11.32 6 12 C5.67 11.01 5.34 10.02 5 9 C4.34 9 3.68 9 3 9 C2.67 9.66 2.34 10.32 2 11 C2 9.68 2 8.36 2 7 C0.68 7.33 -0.64 7.66 -2 8 C-1.125 1.125 -1.125 1.125 0 0 Z " fill="#365D73" transform="translate(314,264)"/>
<path d="M0 0 C0.99 0 1.98 0 3 0 C3 1.32 3 2.64 3 4 C4.32 4 5.64 4 7 4 C7 2.68 7 1.36 7 0 C7.99 0 8.98 0 10 0 C10 3.63 10 7.26 10 11 C9.01 11 8.02 11 7 11 C7 9.68 7 8.36 7 7 C5.68 7 4.36 7 3 7 C3 8.32 3 9.64 3 11 C2.01 11 1.02 11 0 11 C0 7.37 0 3.74 0 0 Z " fill="#F6FBFD" transform="translate(283,246)"/>
<path d="M0 0 C2.4375 0.75 2.4375 0.75 5 2 C5.8125 4.125 5.8125 4.125 6 6 C6.99 6 7.98 6 9 6 C9 6.66 9 7.32 9 8 C10.216875 7.71125 11.43375 7.4225 12.6875 7.125 C14.88671875 6.82421875 14.88671875 6.82421875 17 7 C19.29259828 8.76982052 20.387443 10.53077209 22 13 C21.67 13.66 21.34 14.32 21 15 C15.48431813 13.46688715 10.97965148 10.81247556 6.125 7.875 C5.34125 7.40707031 4.5575 6.93914062 3.75 6.45703125 C1.83017528 5.30981892 -0.08630561 4.1573993 -2 3 C-1.34 2.01 -0.68 1.02 0 0 Z " fill="#758F9E" transform="translate(165,299)"/>
<path d="M0 0 C2.4375 0.9375 2.4375 0.9375 3.75 3 C4.0903125 3.9590625 4.0903125 3.9590625 4.4375 4.9375 C1.4675 4.4425 1.4675 4.4425 -1.5625 3.9375 C-1.5625 5.5875 -1.5625 7.2375 -1.5625 8.9375 C-0.9025 8.9375 -0.2425 8.9375 0.4375 8.9375 C0.7675 8.2775 1.0975 7.6175 1.4375 6.9375 C2.4275 6.9375 3.4175 6.9375 4.4375 6.9375 C3.5625 10.8125 3.5625 10.8125 2.4375 11.9375 C-0.4375 12.25 -0.4375 12.25 -3.5625 11.9375 C-5.5 10.25 -5.5 10.25 -6.5625 7.9375 C-6.42258938 5.06933219 -5.90153136 3.44604704 -4.3125 1.0625 C-2.5625 -0.0625 -2.5625 -0.0625 0 0 Z " fill="#DEE6EA" transform="translate(277.5625,245.0625)"/>
<path d="M0 0 C-0.33 1.98 -0.66 3.96 -1 6 C-0.34 6.33 0.32 6.66 1 7 C0.67 8.32 0.34 9.64 0 11 C-1.98 11.33 -3.96 11.66 -6 12 C-6.99 9.69 -7.98 7.38 -9 5 C-7.02 4.67 -5.04 4.34 -3 4 C-3.99 3.67 -4.98 3.34 -6 3 C-6.33 2.01 -6.66 1.02 -7 0 C-4.3333581 -1.33332095 -2.83319697 -0.67102033 0 0 Z " fill="#205270" transform="translate(276,260)"/>
<path d="M0 0 C0.99 0 1.98 0 3 0 C3.05422947 1.4370809 3.09289723 2.87475462 3.125 4.3125 C3.14820313 5.11300781 3.17140625 5.91351563 3.1953125 6.73828125 C3 9 3 9 1 12 C-2 12.3125 -2 12.3125 -5 12 C-7 10 -7 10 -7.1953125 7.8359375 C-7.17210937 7.02382812 -7.14890625 6.21171875 -7.125 5.375 C-7.10695312 4.55773437 -7.08890625 3.74046875 -7.0703125 2.8984375 C-7.04710937 2.27195313 -7.02390625 1.64546875 -7 1 C-6.01 1 -5.02 1 -4 1 C-4 3.97 -4 6.94 -4 10 C-3.01 9.67 -2.02 9.34 -1 9 C-0.67 6.03 -0.34 3.06 0 0 Z " fill="#F2FBFA" transform="translate(220,245)"/>
<path d="M0 0 C2.4375 0.75 2.4375 0.75 4.4375 2.75 C4.5625 6.375 4.5625 6.375 4.4375 9.75 C3.1175 10.08 1.7975 10.41 0.4375 10.75 C0.4375 8.44 0.4375 6.13 0.4375 3.75 C-3.21566671 4.99976756 -4.34315836 5.42098753 -6.5625 8.75 C-6.25 5.375 -6.25 5.375 -5.5625 1.75 C-2.5625 -0.25 -2.5625 -0.25 0 0 Z " fill="#E4EDF1" transform="translate(311.5625,245.25)"/>
<path d="M0 0 C-0.33 2.31 -0.66 4.62 -1 7 C-0.34 7.33 0.32 7.66 1 8 C-1.3125 8.625 -1.3125 8.625 -4 9 C-4.99 8.34 -5.98 7.68 -7 7 C-6.67 4.69 -6.34 2.38 -6 0 C-3 -1 -3 -1 0 0 Z " fill="#DAE4E7" transform="translate(313,249)"/>
<path d="M0 0 C2.97 0 5.94 0 9 0 C9 0.99 9 1.98 9 3 C8.01 3 7.02 3 6 3 C6 5.97 6 8.94 6 12 C5.01 12 4.02 12 3 12 C3 9.03 3 6.06 3 3 C2.01 3 1.02 3 0 3 C0 2.01 0 1.02 0 0 Z " fill="#D8E5EB" transform="translate(252,245)"/>
<path d="M0 0 C0.33 0 0.66 0 1 0 C1 1.65 1 3.3 1 5 C0.34 5 -0.32 5 -1 5 C-1.33 18.2 -1.66 31.4 -2 45 C-2.33 45 -2.66 45 -3 45 C-3.07427668 39.3949675 -3.12866208 33.79022289 -3.16479492 28.18481445 C-3.17986128 26.27883919 -3.20031824 24.37289848 -3.22631836 22.46704102 C-3.26279642 19.72403424 -3.27974792 16.98148672 -3.29296875 14.23828125 C-3.30845261 13.38913651 -3.32393646 12.53999176 -3.33988953 11.66511536 C-3.34122341 6.95310888 -3.07726608 3.83137871 0 0 Z " fill="#5F7482" transform="translate(156,139)"/>
<path d="M0 0 C0.66 0 1.32 0 2 0 C2.66 0.66 3.32 1.32 4 2 C4.66 1.67 5.32 1.34 6 1 C6 1.99 6 2.98 6 4 C9.63 4 13.26 4 17 4 C17 4.33 17 4.66 17 5 C12.71 5 8.42 5 4 5 C4 8.63 4 12.26 4 16 C1.47036213 13.47036213 1.57037627 11.49253483 1.21875 8.0390625 C0.96315247 5.65652842 0.49694231 3.34272802 0 1 C0 0.67 0 0.34 0 0 Z " fill="#5B7689" transform="translate(231,241)"/>
<path d="M0 0 C0.33 0 0.66 0 1 0 C1.33 2.31 1.66 4.62 2 7 C2.350625 6.030625 2.70125 5.06125 3.0625 4.0625 C5 1 5 1 8.6875 0.125 C9.780625 0.08375 10.87375 0.0425 12 0 C10.7934375 1.0828125 10.7934375 1.0828125 9.5625 2.1875 C6.97707928 5.02515689 6.31957187 6.27166147 6 10 C4.02 10 2.04 10 0 10 C0 6.7 0 3.4 0 0 Z " fill="#32556B" transform="translate(320,244)"/>
<path d="M0 0 C0.33 0 0.66 0 1 0 C1 3.96 1 7.92 1 12 C3.97 12 6.94 12 10 12 C10 12.33 10 12.66 10 13 C8.39592672 13.02708567 6.7917215 13.04643483 5.1875 13.0625 C3.84751953 13.07990234 3.84751953 13.07990234 2.48046875 13.09765625 C0 13 0 13 -3 12 C-3 9.03 -3 6.06 -3 3 C-2.01 3 -1.02 3 0 3 C0 2.01 0 1.02 0 0 Z " fill="#3A566A" transform="translate(261,245)"/>
<path d="M0 0 C11.81904024 -0.86060973 11.81904024 -0.86060973 15.5625 2.1875 C19.65079365 6.9047619 19.65079365 6.9047619 21 10 C20.6875 12.3125 20.6875 12.3125 20 14 C18 11 18 11 18 8 C17.34 8 16.68 8 16 8 C14.43524377 6.57130953 13.06490633 5.07963967 11.7265625 3.4375 C9.42809684 1.52384533 7.76794715 1.50441215 4.8125 1.3125 C3.91144531 1.24675781 3.01039063 1.18101562 2.08203125 1.11328125 C1.39496094 1.07589844 0.70789063 1.03851563 0 1 C0 0.67 0 0.34 0 0 Z " fill="#36576C" transform="translate(281,175)"/>
<path d="M0 0 C2.66666667 0.66666667 5.33333333 1.33333333 8 2 C8 2.66 8 3.32 8 4 C6.35 4 4.7 4 3 4 C2.67 4.66 2.34 5.32 2 6 C-1.63 5.67 -5.26 5.34 -9 5 C-8.34 4.67 -7.68 4.34 -7 4 C-7 3.34 -7 2.68 -7 2 C-4.69 2 -2.38 2 0 2 C0 1.34 0 0.68 0 0 Z " fill="#39586C" transform="translate(211,255)"/>
<path d="M0 0 C2.01822917 0.26041667 4.03645833 0.52083333 6.0546875 0.78125 C8.00498344 1.0372485 8.00498344 1.0372485 10 1 C9.67 2.32 9.34 3.64 9 5 C5.01803543 6.05404945 2.01804691 5.84098656 -2 5 C-2 4.34 -2 3.68 -2 3 C-4.31 3 -6.62 3 -9 3 C-9 2.67 -9 2.34 -9 2 C-6.03 2 -3.06 2 0 2 C0 1.34 0 0.68 0 0 Z " fill="#375769" transform="translate(326,255)"/>
<path d="M0 0 C5.75 0.75 5.75 0.75 8 3 C8.125 6.125 8.125 6.125 8 9 C7.01 8.67 6.02 8.34 5 8 C4.3125 5.9375 4.3125 5.9375 4 4 C3.01 4 2.02 4 1 4 C-0.70532323 5.94009522 -0.70532323 5.94009522 -2 8 C-2.6875 6.25 -2.6875 6.25 -3 4 C-1.5625 1.75 -1.5625 1.75 0 0 Z " fill="#EAF1F6" transform="translate(329,245)"/>
<path d="M0 0 C1.98 0 3.96 0 6 0 C5.67 0.66 5.34 1.32 5 2 C4.34 2 3.68 2 3 2 C3 2.66 3 3.32 3 4 C3.99 4.33 4.98 4.66 6 5 C5.01 5.33 4.02 5.66 3 6 C3 6.99 3 7.98 3 9 C3.99 9.33 4.98 9.66 6 10 C4.02 10.33 2.04 10.66 0 11 C0 7.37 0 3.74 0 0 Z " fill="#F8FCFD" transform="translate(224,246)"/>
<path d="M0 0 C4.02316219 1.48536044 7.61292642 3.39876893 11.3125 5.5625 C12.38113281 6.18253906 13.44976562 6.80257812 14.55078125 7.44140625 C15.76314453 8.21291016 15.76314453 8.21291016 17 9 C17 9.33 17 9.66 17 10 C13.65613469 10.22799082 11.61102023 10.36330932 8.6875 8.625 C7 7 7 7 6 5 C5.360625 4.87625 4.72125 4.7525 4.0625 4.625 C2 4 2 4 0.75 1.9375 C0.5025 1.298125 0.255 0.65875 0 0 Z " fill="#899FAE" transform="translate(352,100)"/>
<path d="M0 0 C0.66 0 1.32 0 2 0 C2 3.3 2 6.6 2 10 C3.65 10 5.3 10 7 10 C7 10.66 7 11.32 7 12 C4.36 12 1.72 12 -1 12 C-1.02687279 10.18757948 -1.04633715 8.37504767 -1.0625 6.5625 C-1.07410156 5.55316406 -1.08570313 4.54382813 -1.09765625 3.50390625 C-1 1 -1 1 0 0 Z " fill="#E4EEF2" transform="translate(318,245)"/>
<path d="M0 0 C4.52929466 0.4355091 7.65510811 0.7837578 11 4 C11.33 4.66 11.66 5.32 12 6 C12.99 6.2165625 12.99 6.2165625 14 6.4375 C14.66 6.623125 15.32 6.80875 16 7 C16.33 7.99 16.66 8.98 17 10 C12.97683781 8.51463956 9.38707358 6.60123107 5.6875 4.4375 C4.61886719 3.81746094 3.55023438 3.19742187 2.44921875 2.55859375 C1.64097656 2.04425781 0.83273438 1.52992188 0 1 C0 0.67 0 0.34 0 0 Z " fill="#6E8693" transform="translate(186,314)"/>
<path d="M0 0 C0.66 0.33 1.32 0.66 2 1 C-2.17971334 6.77783903 -2.17971334 6.77783903 -6 7.8125 C-6.99 7.874375 -7.98 7.93625 -9 8 C-10.66804677 8.32635698 -12.33524314 8.65725594 -14 9 C-11.50175511 6.18841591 -8.721524 4.55162169 -5.4375 2.75 C-4.46683594 2.20859375 -3.49617188 1.6671875 -2.49609375 1.109375 C-1.67238281 0.74328125 -0.84867187 0.3771875 0 0 Z " fill="#748A9E" transform="translate(276,68)"/>
<path d="M0 0 C2.64 0 5.28 0 8 0 C3.80022081 3.6578722 -0.87201939 6.79365864 -6 9 C-6.66 8.67 -7.32 8.34 -8 8 C-8 7.34 -8 6.68 -8 6 C-5 4 -5 4 -2 4 C-2 3.34 -2 2.68 -2 2 C-0.68 2.33 0.64 2.66 2 3 C2 2.34 2 1.68 2 1 C1.34 0.67 0.68 0.34 0 0 Z " fill="#698596" transform="translate(306,357)"/>
<path d="M0 0 C2.475 0.99 2.475 0.99 5 2 C-4.42857143 10 -4.42857143 10 -9 10 C-9 8.68 -9 7.36 -9 6 C-7.02 6 -5.04 6 -3 6 C-3 5.01 -3 4.02 -3 3 C-2.01 3 -1.02 3 0 3 C0 2.01 0 1.02 0 0 Z " fill="#5F7B8D" transform="translate(397,304)"/>
<path d="M0 0 C0.66 0.33 1.32 0.66 2 1 C5.54342175 0.99111924 9.07609302 0.86786309 12.6171875 0.7421875 C16.18364876 1.01399633 17.46460668 1.56653204 20 4 C17.24993392 4.0270203 14.50013454 4.04684883 11.75 4.0625 C10.97269531 4.07087891 10.19539063 4.07925781 9.39453125 4.08789062 C8.26337891 4.09272461 8.26337891 4.09272461 7.109375 4.09765625 C6.07248535 4.10551147 6.07248535 4.10551147 5.01464844 4.11352539 C2.90026102 3.99437971 1.03358485 3.57618237 -1 3 C-0.67 2.01 -0.34 1.02 0 0 Z " fill="#1E4B61" transform="translate(259,256)"/>
<path d="M0 0 C0.66 0.33 1.32 0.66 2 1 C1.79503906 1.58265625 1.59007812 2.1653125 1.37890625 2.765625 C-0.83577571 9.50503996 -1.64768878 15.92947835 -2 23 C-2.33 23 -2.66 23 -3 23 C-3.28466242 19.91884257 -3.52158834 16.83579677 -3.75 13.75 C-3.83121094 12.87730469 -3.91242188 12.00460938 -3.99609375 11.10546875 C-4.44413244 4.58401668 -4.44413244 4.58401668 -2.015625 1.390625 C-1.35046875 0.93171875 -0.6853125 0.4728125 0 0 Z " fill="#32556C" transform="translate(260,177)"/>
<path d="M0 0 C0.99 0 1.98 0 3 0 C3 3.63 3 7.26 3 11 C1.68 10.67 0.36 10.34 -1 10 C-2.31223496 6.06329512 -1.24296256 3.87511856 0 0 Z " fill="#F1F8FB" transform="translate(301,246)"/>
<path d="M0 0 C1.32 0 2.64 0 4 0 C4 0.99 4 1.98 4 3 C4.61488281 2.88140625 5.22976563 2.7628125 5.86328125 2.640625 C8.28641811 2.25415979 10.54493596 1.95211755 13 2 C15.0625 3.9375 15.0625 3.9375 16 6 C10.34139667 6.3464451 6.91920235 5.60428359 2 3 C1.34 2.01 0.68 1.02 0 0 Z " fill="#40576D" transform="translate(275,207)"/>
<path d="M0 0 C1.66611905 -0.042721 3.33382885 -0.04063832 5 0 C6 1 6 1 6.0625 3.5625 C6.041875 4.366875 6.02125 5.17125 6 6 C4.34385343 6.38218767 2.67542976 6.71395102 1 7 C0 6 0 6 -0.0625 2.9375 C-0.041875 1.968125 -0.02125 0.99875 0 0 Z " fill="#D0DEE6" transform="translate(250,266)"/>
<path d="M0 0 C0.99 0 1.98 0 3 0 C3.1546875 1.175625 3.1546875 1.175625 3.3125 2.375 C3.77595022 5.33045181 3.77595022 5.33045181 7 7 C5.68 7 4.36 7 3 7 C3 8.32 3 9.64 3 11 C2.01 11 1.02 11 0 11 C0 7.37 0 3.74 0 0 Z " fill="#ECFBFD" transform="translate(283,246)"/>
<path d="M0 0 C0.226875 0.61875 0.45375 1.2375 0.6875 1.875 C2.37929835 4.61410209 3.99244161 5.05024472 7 6 C7 6.66 7 7.32 7 8 C5.96875 7.835 4.9375 7.67 3.875 7.5 C0.51755674 7.06678152 -2.62336157 6.91764297 -6 7 C-6 6.67 -6 6.34 -6 6 C-4.35 6 -2.7 6 -1 6 C-1 5.01 -1 4.02 -1 3 C-2.65 3 -4.3 3 -6 3 C-6 2.34 -6 1.68 -6 1 C-4.02 0.67 -2.04 0.34 0 0 Z " fill="#5A6772" transform="translate(363,247)"/>
<path d="M0 0 C4.55555556 1.55555556 4.55555556 1.55555556 6 3 C7.66617115 3.04063832 9.33388095 3.042721 11 3 C7.40537669 5.25998595 4.43404325 5.20868087 0.25 5.125 C-0.92046875 5.10695313 -2.0909375 5.08890625 -3.296875 5.0703125 C-4.63492188 5.03550781 -4.63492188 5.03550781 -6 5 C-6 4.34 -6 3.68 -6 3 C-4.68 3 -3.36 3 -2 3 C-2 2.34 -2 1.68 -2 1 C-1.34 0.67 -0.68 0.34 0 0 Z " fill="#224A64" transform="translate(221,256)"/>
<path d="M0 0 C0.495 0.33 0.99 0.66 1.5 1 C0.51 1 -0.48 1 -1.5 1 C-1.5 2.32 -1.5 3.64 -1.5 5 C-2.82 5 -4.14 5 -5.5 5 C-5.5 3.68 -5.5 2.36 -5.5 1 C-6.82 1 -8.14 1 -9.5 1 C-9.83 1.66 -10.16 2.32 -10.5 3 C-11.49 2.01 -12.48 1.02 -13.5 0 C-8.97258828 -1.50913724 -4.43573202 -1.77429281 0 0 Z " fill="#43637A" transform="translate(291.5,245)"/>
<path d="M0 0 C0.33 0.66 0.66 1.32 1 2 C1.99 2.33 2.98 2.66 4 3 C4 4.98 4 6.96 4 9 C2.29159719 7.36587557 1.06546953 6.13093906 0 4 C-0.99 3.67 -1.98 3.34 -3 3 C-3 6.96 -3 10.92 -3 15 C-3.33 15 -3.66 15 -4 15 C-4 10.71 -4 6.42 -4 2 C-2.68 1.34 -1.36 0.68 0 0 Z " fill="#3C5465" transform="translate(297,242)"/>
<path d="M0 0 C0 0.66 0 1.32 0 2 C-0.66 2 -1.32 2 -2 2 C-2 2.66 -2 3.32 -2 4 C-3.175625 4.12375 -3.175625 4.12375 -4.375 4.25 C-7.14044802 4.71525923 -7.14044802 4.71525923 -8.1875 7 C-8.455625 7.66 -8.72375 8.32 -9 9 C-9.99 9.495 -9.99 9.495 -11 10 C-11.33 9.34 -11.66 8.68 -12 8 C-12.66 7.67 -13.32 7.34 -14 7 C-12.04480616 5.82807953 -10.0857461 4.6626071 -8.125 3.5 C-7.03445312 2.8503125 -5.94390625 2.200625 -4.8203125 1.53125 C-2 0 -2 0 0 0 Z " fill="#708A9A" transform="translate(245,87)"/>
<path d="M0 0 C3.125 0.375 3.125 0.375 6 1 C6 1.99 6 2.98 6 4 C4.35 3.67 2.7 3.34 1 3 C1 3.66 1 4.32 1 5 C1.66 5.33 2.32 5.66 3 6 C1.68 6.33 0.36 6.66 -1 7 C-1.625 4.625 -1.625 4.625 -2 2 C-1.34 1.34 -0.68 0.68 0 0 Z " fill="#ECF2F6" transform="translate(366,245)"/>
<path d="M0 0 C4.50802601 1.25805377 7.4912812 2.90407165 11 6 C7.01803543 7.05404945 4.01804691 6.84098656 0 6 C0.33 5.01 0.66 4.02 1 3 C0.67 2.01 0.34 1.02 0 0 Z " fill="#617F92" transform="translate(369,110)"/>
<path d="M0 0 C5.99813722 -0.59981372 5.99813722 -0.59981372 8.80078125 1.078125 C10.4375 2.4375 10.4375 2.4375 13 5 C13 5.33 13 5.66 13 6 C8.21193122 6.74813575 5.43289751 4.69491132 1.57421875 2.19140625 C1.05472656 1.79824219 0.53523437 1.40507812 0 1 C0 0.67 0 0.34 0 0 Z " fill="#607E8E" transform="translate(231,340)"/>
<path d="M0 0 C2.625 0.375 2.625 0.375 5 1 C-4.42857143 9 -4.42857143 9 -9 9 C-8.67 7.68 -8.34 6.36 -8 5 C-6.35 5 -4.7 5 -3 5 C-2.67 4.01 -2.34 3.02 -2 2 C-1.34 1.34 -0.68 0.68 0 0 Z " fill="#79939F" transform="translate(380,315)"/>
<path d="M0 0 C2.475 0.495 2.475 0.495 5 1 C5.33 2.32 5.66 3.64 6 5 C3 7 3 7 0 7 C0 4.69 0 2.38 0 0 Z " fill="#CAD7DD" transform="translate(297,266)"/>
<path d="M0 0 C0.99 0.33 1.98 0.66 3 1 C2.34 1.66 1.68 2.32 1 3 C1.34227572 5.97065509 1.34227572 5.97065509 2 9 C2 9.99 2 10.98 2 12 C1.34 11.67 0.68 11.34 0 11 C0 10.01 0 9.02 0 8 C-1.98 8 -3.96 8 -6 8 C-6 7.67 -6 7.34 -6 7 C-4.35 7 -2.7 7 -1 7 C-1 6.01 -1 5.02 -1 4 C-2.65 4 -4.3 4 -6 4 C-6 3.34 -6 2.68 -6 2 C-4.02 2 -2.04 2 0 2 C0 1.34 0 0.68 0 0 Z " fill="#4D5F6C" transform="translate(271,246)"/>
<path d="M0 0 C0.99 0.33 1.98 0.66 3 1 C3 4.63 3 8.26 3 12 C2.01 12 1.02 12 0 12 C0 8.04 0 4.08 0 0 Z " fill="#E3EDF0" transform="translate(350,245)"/>
<path d="M0 0 C0.66 0.33 1.32 0.66 2 1 C1.67 1.66 1.34 2.32 1 3 C0.01 3 -0.98 3 -2 3 C-2 3.99 -2 4.98 -2 6 C-6.01786884 8.00893442 -8.43912556 9.12002301 -13 9 C-10.59497637 6.36479259 -7.9814151 4.59697057 -4.9375 2.75 C-4.05964844 2.20859375 -3.18179688 1.6671875 -2.27734375 1.109375 C-1.52582031 0.74328125 -0.77429688 0.3771875 0 0 Z " fill="#7B94A6" transform="translate(192,116)"/>
<path d="M0 0 C0.45375 0.495 0.9075 0.99 1.375 1.5 C2.87635519 3.22609337 2.87635519 3.22609337 5 3 C5.33 2.34 5.66 1.68 6 1 C6.99 1 7.98 1 9 1 C8.125 4.875 8.125 4.875 7 6 C4.0625 6.1875 4.0625 6.1875 1 6 C0.34 5.34 -0.32 4.68 -1 4 C-0.625 1.875 -0.625 1.875 0 0 Z " fill="#ECF4F7" transform="translate(273,251)"/>
<path d="M0 0 C0.99 0 1.98 0 3 0 C3.08131463 1.43655854 3.13933559 2.8744483 3.1875 4.3125 C3.22230469 5.11300781 3.25710937 5.91351563 3.29296875 6.73828125 C2.93801608 9.47851584 2.10633718 10.29171079 0 12 C-1.03159626 8.90521121 -0.97482862 7.47368607 -0.5625 4.3125 C-0.46066406 3.50425781 -0.35882813 2.69601563 -0.25390625 1.86328125 C-0.17011719 1.24839844 -0.08632812 0.63351563 0 0 Z " fill="#DFE9EE" transform="translate(220,245)"/>
<path d="M0 0 C2.88395737 1.44197868 4.76525152 3.70644235 7 6 C6.67 6.66 6.34 7.32 6 8 C0.33846154 6.52307692 0.33846154 6.52307692 -1.375 3.875 C-1.58125 3.25625 -1.7875 2.6375 -2 2 C-1.34 1.34 -0.68 0.68 0 0 Z " fill="#516F85" transform="translate(180,306)"/>
<path d="M0 0 C1.98 0.99 1.98 0.99 4 2 C4 4.31 4 6.62 4 9 C5.98 9.66 7.96 10.32 10 11 C9.67 11.66 9.34 12.32 9 13 C7.02 13 5.04 13 3 13 C1.18482812 9.14275976 0.90594663 6.23240187 1 2 C0.67 1.34 0.34 0.68 0 0 Z " fill="#496273" transform="translate(335,246)"/>
<path d="M0 0 C2.6465335 2.6465335 3.59941997 5.56221264 5 9 C3.02 9.33 1.04 9.66 -1 10 C-1.02689216 8.52093108 -1.04634621 7.04172517 -1.0625 5.5625 C-1.07410156 4.73878906 -1.08570313 3.91507813 -1.09765625 3.06640625 C-1 1 -1 1 0 0 Z " fill="#2C536A" transform="translate(259,205)"/>
<path d="M0 0 C0.33 0 0.66 0 1 0 C1.125 5.75 1.125 5.75 0 8 C-0.66 8 -1.32 8 -2 8 C-2.144375 8.763125 -2.28875 9.52625 -2.4375 10.3125 C-3 13 -3 13 -4 16 C-4.99 16 -5.98 16 -7 16 C-6.58621094 15.20335937 -6.58621094 15.20335937 -6.1640625 14.390625 C-4.78291096 11.55416613 -3.57935359 8.66580343 -2.375 5.75 C-1.92898438 4.67234375 -1.48296875 3.5946875 -1.0234375 2.484375 C-0.51683594 1.25460938 -0.51683594 1.25460938 0 0 Z " fill="#3A586A" transform="translate(316,200)"/>
<path d="M0 0 C0.66 0.33 1.32 0.66 2 1 C0.82250192 2.17749808 -0.37774564 3.3341596 -1.625 4.4375 C-3.33031395 6.02846455 -3.33031395 6.02846455 -3 9 C-4.32 9.33 -5.64 9.66 -7 10 C-7 10.99 -7 11.98 -7 13 C-7.99 12.67 -8.98 12.34 -10 12 C-9.01 10.02 -8.02 8.04 -7 6 C-6.34 6 -5.68 6 -5 6 C-5 5.01 -5 4.02 -5 3 C-2.625 1.25 -2.625 1.25 0 0 Z " fill="#4A6F87" transform="translate(215,103)"/>
<path d="M0 0 C0.99 0 1.98 0 3 0 C3.33 2.31 3.66 4.62 4 7 C1.625 7.1875 1.625 7.1875 -1 7 C-1.66 6.01 -2.32 5.02 -3 4 C-2.34 4 -1.68 4 -1 4 C-0.67 2.68 -0.34 1.36 0 0 Z " fill="#235062" transform="translate(265,266)"/>
<path d="M0 0 C0.99 0.66 1.98 1.32 3 2 C2.67 2.99 2.34 3.98 2 5 C2.639375 5.268125 3.27875 5.53625 3.9375 5.8125 C6 7 6 7 7 10 C3.40608886 8.66511872 0.24509304 7.03977277 -3 5 C-2.34 4.67 -1.68 4.34 -1 4 C-0.34786708 1.97536745 -0.34786708 1.97536745 0 0 Z " fill="#618197" transform="translate(248,344)"/>
<path d="M0 0 C2.125 0.375 2.125 0.375 4 1 C4 2.65 4 4.3 4 6 C2.35 6 0.7 6 -1 6 C-1.625 4.125 -1.625 4.125 -2 2 C-1.34 1.34 -0.68 0.68 0 0 Z " fill="#CAD7DE" transform="translate(279,266)"/>
<path d="M0 0 C2.0625 0.4375 2.0625 0.4375 4 1 C4 2.65 4 4.3 4 6 C2.0625 6.5625 2.0625 6.5625 0 7 C-1 6 -1 6 -1.125 3.5 C-1 1 -1 1 0 0 Z " fill="#4F6679" transform="translate(330,248)"/>
<path d="M0 0 C0.66 0.66 1.32 1.32 2 2 C2.66 1.34 3.32 0.68 4 0 C4 2.97 4 5.94 4 9 C2.68 9 1.36 9 0 9 C0 6.03 0 3.06 0 0 Z " fill="#D5E3E9" transform="translate(241,248)"/>
<path d="M0 0 C0.33 0 0.66 0 1 0 C1.05422947 1.4370809 1.09289723 2.87475462 1.125 4.3125 C1.14820313 5.11300781 1.17140625 5.91351563 1.1953125 6.73828125 C1 9 1 9 -1 12 C-4.875 10.25 -4.875 10.25 -6 8 C-4.68 8.33 -3.36 8.66 -2 9 C-2 7.35 -2 5.7 -2 4 C-1.34 4 -0.68 4 0 4 C0 2.68 0 1.36 0 0 Z " fill="#2F5268" transform="translate(301,194)"/>
<path d="M0 0 C2 0 4 0 6 0 C6 1.98 6 3.96 6 6 C4.02 6 2.04 6 0 6 C0 4.02 0 2.04 0 0 Z " fill="#DFEEF5" transform="translate(287,266)"/>
<path d="M0 0 C3 1 3 1 4 3 C6.32156597 3.40729228 8.6568787 3.74438677 11 4 C11 4.33 11 4.66 11 5 C5.39 5 -0.22 5 -6 5 C-5.67 4.01 -5.34 3.02 -5 2 C-4.67 2.66 -4.34 3.32 -4 4 C-2.68 3.34 -1.36 2.68 0 2 C0 1.34 0 0.68 0 0 Z " fill="#204B66" transform="translate(258,240)"/>
<path d="M0 0 C0.33 3.3 0.66 6.6 1 10 C-0.32 10.33 -1.64 10.66 -3 11 C-3.66 10.34 -4.32 9.68 -5 9 C-4.34 9 -3.68 9 -3 9 C-2.3121764 6.64632287 -2.3121764 6.64632287 -2 4 C-2.66 3.01 -3.32 2.02 -4 1 C-1 0 -1 0 0 0 Z " fill="#3B5F77" transform="translate(316,217)"/>
<path d="M0 0 C0.33 0 0.66 0 1 0 C0.67 2.97 0.34 5.94 0 9 C-0.66 8.67 -1.32 8.34 -2 8 C-1.34 5.36 -0.68 2.72 0 0 Z M-4 9 C-3.34 9 -2.68 9 -2 9 C-2 10.65 -2 12.3 -2 14 C-3.65 13.67 -5.3 13.34 -7 13 C-5.625 11 -5.625 11 -4 9 Z " fill="#1D4A63" transform="translate(301,189)"/>
<path d="M0 0 C1.07765625 0.19464844 2.1553125 0.38929688 3.265625 0.58984375 C4.08546875 0.74582031 4.9053125 0.90179688 5.75 1.0625 C5.75 1.3925 5.75 1.7225 5.75 2.0625 C0.47 2.0625 -4.81 2.0625 -10.25 2.0625 C-10.25 1.4025 -10.25 0.7425 -10.25 0.0625 C-6.59606463 -1.20573485 -3.75929974 -0.69465321 0 0 Z " fill="#2B4C61" transform="translate(291.25,160.9375)"/>
<path d="M0 0 C1.65 0.33 3.3 0.66 5 1 C2.78770401 3.54414039 1.34873329 4.54746847 -2 5 C-9.29151292 5.47232472 -9.29151292 5.47232472 -13 3 C-8.71 3 -4.42 3 0 3 C0 2.01 0 1.02 0 0 Z " fill="#94A5B1" transform="translate(293,365)"/>
<path d="M0 0 C1.32 0 2.64 0 4 0 C2.52440331 4.42679007 0.09942632 4.91432696 -4 7 C-4.66 7 -5.32 7 -6 7 C-6 6.01 -6 5.02 -6 4 C-4 2.3125 -4 2.3125 -2 1 C-2 1.66 -2 2.32 -2 3 C-1.34 3 -0.68 3 0 3 C0 2.01 0 1.02 0 0 Z " fill="#6D8697" transform="translate(339,339)"/>
<path d="M0 0 C2.31 0.33 4.62 0.66 7 1 C3.4912812 4.09592835 0.50802601 5.74194623 -4 7 C-3.34 5.68 -2.68 4.36 -2 3 C-1.34 3 -0.68 3 0 3 C0 2.01 0 1.02 0 0 Z " fill="#668597" transform="translate(352,330)"/>
<path d="M0 0 C0 0.66 0 1.32 0 2 C-0.763125 2.28875 -1.52625 2.5775 -2.3125 2.875 C-5.15029308 3.96269013 -5.15029308 3.96269013 -8 6 C-7.625 3.0625 -7.625 3.0625 -7 0 C-4.3333581 -1.33332095 -2.83319697 -0.67102033 0 0 Z " fill="#EBF2F5" transform="translate(209,246)"/>
<path d="M0 0 C0.66 0 1.32 0 2 0 C2.33 2.31 2.66 4.62 3 7 C2.01 7.33 1.02 7.66 0 8 C-0.33 8.66 -0.66 9.32 -1 10 C-1.33 8.68 -1.66 7.36 -2 6 C-1.34 6 -0.68 6 0 6 C0 4.02 0 2.04 0 0 Z " fill="#7599AF" transform="translate(321,266)"/>
<path d="M0 0 C1.65 0 3.3 0 5 0 C5 1.98 5 3.96 5 6 C3.02 6 1.04 6 -1 6 C-0.67 5.34 -0.34 4.68 0 4 C0.66 4 1.32 4 2 4 C2 3.34 2 2.68 2 2 C1.34 2 0.68 2 0 2 C0 1.34 0 0.68 0 0 Z " fill="#F2F9FB" transform="translate(343,251)"/>
<path d="M0 0 C3.375 -0.125 3.375 -0.125 7 0 C9 2 9 2 9 5 C5.25 6.125 5.25 6.125 3 5 C3 4.34 3 3.68 3 3 C3.66 2.67 4.32 2.34 5 2 C3.35 1.67 1.7 1.34 0 1 C0 0.67 0 0.34 0 0 Z " fill="#B4C1C8" transform="translate(224,245)"/>
<path d="M0 0 C2.31 0 4.62 0 7 0 C5 2 5 2 2.5 3.9375 C-0.16390959 5.93297647 -0.16390959 5.93297647 -2 9 C-2 7.02 -2 5.04 -2 3 C-1.34 3 -0.68 3 0 3 C0 2.01 0 1.02 0 0 Z " fill="#2E4F6A" transform="translate(288,200)"/>
<path d="M0 0 C1.32 0 2.64 0 4 0 C4 1.32 4 2.64 4 4 C4.99 4.33 5.98 4.66 7 5 C5.02 5.66 3.04 6.32 1 7 C0.67 4.69 0.34 2.38 0 0 Z " fill="#2D536D" transform="translate(286,253)"/>
<path d="M0 0 C2.30143236 3.45214853 2.13833854 4.23479324 1.625 8.1875 C1.51414062 9.08855469 1.40328125 9.98960937 1.2890625 10.91796875 C1.19367188 11.60503906 1.09828125 12.29210937 1 13 C0.01 13 -0.98 13 -2 13 C-1.67 12.67 -1.34 12.34 -1 12 C-0.76038787 7.76685233 -0.67511353 4.63263511 -3 1 C-2.01 0.67 -1.02 0.34 0 0 Z " fill="#425C6F" transform="translate(316,243)"/>
<path d="M0 0 C0 0.33 0 0.66 0 1 C-1.65 1.33 -3.3 1.66 -5 2 C-5.33 3.98 -5.66 5.96 -6 8 C-6.99 7.67 -7.98 7.34 -9 7 C-9.1875 4.625 -9.1875 4.625 -9 2 C-5.5647952 -0.29013653 -4.014669 -0.17842973 0 0 Z " fill="#234A61" transform="translate(256,264)"/>
<path d="M0 0 C1.33333333 2.66666667 2.66666667 5.33333333 4 8 C3.01 9.485 3.01 9.485 2 11 C1.773125 10.05125 1.54625 9.1025 1.3125 8.125 C0.30916286 4.80676612 0.30916286 4.80676612 -2.625 3.625 C-3.40875 3.41875 -4.1925 3.2125 -5 3 C-5 2.34 -5 1.68 -5 1 C-2.525 1.495 -2.525 1.495 0 2 C0 1.34 0 0.68 0 0 Z " fill="#597484" transform="translate(372,247)"/>
<path d="M0 0 C0.99 0.33 1.98 0.66 3 1 C3 2.65 3 4.3 3 6 C1.35 5.67 -0.3 5.34 -2 5 C-1.125 1.125 -1.125 1.125 0 0 Z " fill="#3A5367" transform="translate(310,248)"/>
<path d="M0 0 C0.66 0 1.32 0 2 0 C2 3.3 2 6.6 2 10 C1.01 10 0.02 10 -1 10 C-0.67 6.7 -0.34 3.4 0 0 Z " fill="#F4FDFD" transform="translate(256,247)"/>
<path d="M0 0 C3.99500618 1.3697164 6.80009492 3.25722422 10 6 C6.14354879 6.22036864 3.50776784 5.60355101 0 4 C0 2.68 0 1.36 0 0 Z " fill="#758F9F" transform="translate(380,116)"/>
<path d="M0 0 C0 0.66 0 1.32 0 2 C0.99 2 1.98 2 3 2 C3 2.66 3 3.32 3 4 C2.01 4 1.02 4 0 4 C0 4.66 0 5.32 0 6 C-1.32 5.67 -2.64 5.34 -4 5 C-4 3.68 -4 2.36 -4 1 C-2 0 -2 0 0 0 Z " fill="#1D4964" transform="translate(318,81)"/>
<path d="M0 0 C0.66 0.99 1.32 1.98 2 3 C1.34 3.66 0.68 4.32 0 5 C-2.1640625 4.9765625 -2.1640625 4.9765625 -4.625 4.625 C-5.44226563 4.51414062 -6.25953125 4.40328125 -7.1015625 4.2890625 C-7.72804688 4.19367188 -8.35453125 4.09828125 -9 4 C-9 3.34 -9 2.68 -9 2 C-6.36 2 -3.72 2 -1 2 C-0.67 1.34 -0.34 0.68 0 0 Z " fill="#204960" transform="translate(373,256)"/>
<path d="M0 0 C0 0.33 0 0.66 0 1 C-3.96 1.66 -7.92 2.32 -12 3 C-12 2.34 -12 1.68 -12 1 C-12.66 0.67 -13.32 0.34 -14 0 C-8.97874074 -0.77916092 -5.02296004 -1.13016601 0 0 Z " fill="#355369" transform="translate(238,257)"/>
<path d="M0 0 C0.66 0 1.32 0 2 0 C2.33 3.63 2.66 7.26 3 11 C2.01 10.67 1.02 10.34 0 10 C-1.51675663 6.58729758 -0.72783588 3.55830874 0 0 Z " fill="#305267" transform="translate(253,248)"/>
<path d="M0 0 C2 3 2 3 2 4 C2.66 4.66 3.32 5.32 4 6 C3.01 7.32 2.02 8.64 1 10 C1 9.01 1 8.02 1 7 C0.34 7 -0.32 7 -1 7 C-1.33 7.66 -1.66 8.32 -2 9 C-1.125 2.25 -1.125 2.25 0 0 Z " fill="#355A71" transform="translate(274,181)"/>
<path d="M0 0 C0.66 0.33 1.32 0.66 2 1 C0.35 2.65 -1.3 4.3 -3 6 C-4.32 5.34 -5.64 4.68 -7 4 C-1.7265625 0.77734375 -1.7265625 0.77734375 0 0 Z " fill="#708A9C" transform="translate(224,98)"/>
<path d="M0 0 C-0.33 1.32 -0.66 2.64 -1 4 C-7.75 6.125 -7.75 6.125 -10 5 C-8.71186658 4.16121545 -7.41936744 3.32913217 -6.125 2.5 C-5.40570313 2.0359375 -4.68640625 1.571875 -3.9453125 1.09375 C-2 0 -2 0 0 0 Z " fill="#7E96A4" transform="translate(255,81)"/>
<path d="M0 0 C1.98 0.66 3.96 1.32 6 2 C6 2.99 6 3.98 6 5 C5.67 4.34 5.34 3.68 5 3 C4.34 3 3.68 3 3 3 C2.67 3.99 2.34 4.98 2 6 C0.68 5.67 -0.64 5.34 -2 5 C-1.67 4.34 -1.34 3.68 -1 3 C-0.34 3.33 0.32 3.66 1 4 C0.67 2.68 0.34 1.36 0 0 Z " fill="#5D7E94" transform="translate(298,69)"/>
<path d="M0 0 C0.33 0.66 0.66 1.32 1 2 C-1.375 3.5625 -1.375 3.5625 -4 5 C-6 4 -6 4 -7 1 C-4.53721199 -0.231394 -2.7204945 -0.07159196 0 0 Z " fill="#5E7C8F" transform="translate(370,323)"/>
<path d="M0 0 C1.32 0 2.64 0 4 0 C4.33 1.98 4.66 3.96 5 6 C3.35 6 1.7 6 0 6 C0 4.02 0 2.04 0 0 Z " fill="#E6EEF4" transform="translate(260,266)"/>
<path d="M0 0 C0.33 0.99 0.66 1.98 1 3 C2.98 3 4.96 3 7 3 C7 3.66 7 4.32 7 5 C4.03 5 1.06 5 -2 5 C-1.34 3.35 -0.68 1.7 0 0 Z " fill="#F2FCFE" transform="translate(356,252)"/>
<path d="M0 0 C0.99 0.33 1.98 0.66 3 1 C3 2.98 3 4.96 3 7 C1.68 7.33 0.36 7.66 -1 8 C-0.67 5.36 -0.34 2.72 0 0 Z " fill="#F4F8FA" transform="translate(313,248)"/>
<path d="M0 0 C1.32 0.66 2.64 1.32 4 2 C4 2.99 4 3.98 4 5 C2.35 5.33 0.7 5.66 -1 6 C-1.042721 4.33388095 -1.04063832 2.66617115 -1 1 C-0.67 0.67 -0.34 0.34 0 0 Z " fill="#466172" transform="translate(205,248)"/>
<path d="M0 0 C2.97 0 5.94 0 9 0 C9 0.66 9 1.32 9 2 C7.68 2 6.36 2 5 2 C4.67 2.99 4.34 3.98 4 5 C3.67 4.01 3.34 3.02 3 2 C2.01 2 1.02 2 0 2 C0 1.34 0 0.68 0 0 Z " fill="#F9FCFD" transform="translate(239,246)"/>
<path d="M0 0 C-7.5 5 -7.5 5 -11 5 C-10.6875 3.0625 -10.6875 3.0625 -10 1 C-6.52674819 -0.1577506 -3.63932552 -0.06866652 0 0 Z " fill="#355670" transform="translate(280,163)"/>
<path d="M0 0 C1.65 0 3.3 0 5 0 C-0.14285714 4.42857143 -0.14285714 4.42857143 -4 5 C-4.33 4.01 -4.66 3.02 -5 2 C-3.35 1.67 -1.7 1.34 0 1 C0 0.67 0 0.34 0 0 Z " fill="#7C94A5" transform="translate(328,346)"/>
<path d="M0 0 C2.31 0 4.62 0 7 0 C7.66 1.65 8.32 3.3 9 5 C5.54074837 3.7508258 2.85306797 2.32472205 0 0 Z " fill="#6B8898" transform="translate(222,335)"/>
<path d="M0 0 C0.66 0 1.32 0 2 0 C2.66 1.98 3.32 3.96 4 6 C2.02 6 0.04 6 -2 6 C-1.125 1.125 -1.125 1.125 0 0 Z " fill="#E2ECF4" transform="translate(314,266)"/>
<path d="M0 0 C2.64 0 5.28 0 8 0 C7.01 0.33 6.02 0.66 5 1 C5 3.97 5 6.94 5 10 C4.34 9.67 3.68 9.34 3 9 C2.66073053 6.66752239 2.32759934 4.33414529 2 2 C1.34 1.34 0.68 0.68 0 0 Z " fill="#4F656F" transform="translate(208,245)"/>
<path d="M0 0 C0.99 0 1.98 0 3 0 C3 0.66 3 1.32 3 2 C3.99 2.33 4.98 2.66 6 3 C4.35 3 2.7 3 1 3 C1 3.66 1 4.32 1 5 C1.66 5.33 2.32 5.66 3 6 C1.68 6 0.36 6 -1 6 C-1.042721 4.33388095 -1.04063832 2.66617115 -1 1 C-0.67 0.67 -0.34 0.34 0 0 Z " fill="#5E6A76" transform="translate(342,248)"/>
<path d="M0 0 C2.97 0 5.94 0 9 0 C9 0.99 9 1.98 9 3 C6.1875 3.1875 6.1875 3.1875 3 3 C2.01 2.01 1.02 1.02 0 0 Z " fill="#C9D9E4" transform="translate(354,245)"/>
<path d="M0 0 C0.66 0.66 1.32 1.32 2 2 C0.0625 2.5625 0.0625 2.5625 -2 3 C-2.33 2.67 -2.66 2.34 -3 2 C-5.32817964 1.63239269 -7.6618385 1.29758419 -10 1 C-10 0.67 -10 0.34 -10 0 C-3.42391304 -1.3451087 -3.42391304 -1.3451087 0 0 Z " fill="#D6E0E5" transform="translate(367,254)"/>
<path d="M0 0 C1.65 0.33 3.3 0.66 5 1 C3 3 1 5 -1 7 C-1.625 5.1875 -1.625 5.1875 -2 3 C-1.34 2.01 -0.68 1.02 0 0 Z " fill="#F5FDFE" transform="translate(328,246)"/>
<path d="M0 0 C1.32 0 2.64 0 4 0 C3.67 2.97 3.34 5.94 3 9 C0.23776722 6.23776722 0.42143709 3.79293383 0 0 Z " fill="#285267" transform="translate(198,246)"/>
<path d="M0 0 C3.99500618 1.3697164 6.80009492 3.25722422 10 6 C6.38238619 5.67112602 4.44334967 5.37334709 1.625 3 C0 1 0 1 0 0 Z " fill="#8FA4B0" transform="translate(399,127)"/>
<path d="M0 0 C0.33 0.66 0.66 1.32 1 2 C1.66 2.144375 2.32 2.28875 3 2.4375 C3.66 2.623125 4.32 2.80875 5 3 C5.33 3.99 5.66 4.98 6 6 C2.54074837 4.7508258 -0.14693203 3.32472205 -3 1 C-2.01 0.67 -1.02 0.34 0 0 Z " fill="#8999A5" transform="translate(197,318)"/>
<path d="M0 0 C1.98 0 3.96 0 6 0 C5.34 1.98 4.68 3.96 4 6 C3.34 6 2.68 6 2 6 C1.34 4.02 0.68 2.04 0 0 Z " fill="#D6E9F3" transform="translate(268,266)"/>
<path d="M0 0 C0 0.99 0 1.98 0 3 C-2.31 2.67 -4.62 2.34 -7 2 C-7 1.34 -7 0.68 -7 0 C-3.86650268 -1.04449911 -3.01031744 -0.93423645 0 0 Z " fill="#ECF4F4" transform="translate(211,255)"/>
<path d="M0 0 C0.66 0.33 1.32 0.66 2 1 C0.515 3.475 0.515 3.475 -1 6 C-1.66 5.01 -2.32 4.02 -3 3 C-3 3.66 -3 4.32 -3 5 C-4.32 4.67 -5.64 4.34 -7 4 C-1.7265625 0.77734375 -1.7265625 0.77734375 0 0 Z " fill="#8098AB" transform="translate(170,129)"/>
<path d="M0 0 C3.45925163 1.2491742 6.14693203 2.67527795 9 5 C7.35 5 5.7 5 4 5 C4 4.34 4 3.68 4 3 C3.01 3.33 2.02 3.66 1 4 C0.67 2.68 0.34 1.36 0 0 Z " fill="#7E95A3" transform="translate(390,122)"/>
<path d="M0 0 C-0.99 0.33 -1.98 0.66 -3 1 C-3 1.66 -3 2.32 -3 3 C-4.32 3.33 -5.64 3.66 -7 4 C-7.33 2.68 -7.66 1.36 -8 0 C-5.13822943 -1.43088528 -3.06624227 -0.59991697 0 0 Z " fill="#4F6D81" transform="translate(202,115)"/>
<path d="M0 0 C3.59391114 1.33488128 6.75490696 2.96022723 10 5 C8.3125 5.6875 8.3125 5.6875 6 6 C3.3125 4.75 3.3125 4.75 1 3 C0.67 2.01 0.34 1.02 0 0 Z " fill="#90A4B2" transform="translate(340,93)"/>
<path d="M0 0 C7.63076923 1.47692308 7.63076923 1.47692308 9.5 4.125 C9.665 4.74375 9.83 5.3625 10 6 C6.40992874 4.66654496 3.20429093 3.1056769 0 1 C0 0.67 0 0.34 0 0 Z " fill="#8EA2B0" transform="translate(212,329)"/>
<path d="M0 0 C2.31 0 4.62 0 7 0 C4.82575883 2.50037734 3.26954202 3.43628586 0 4 C0 2.68 0 1.36 0 0 Z " fill="#6E889B" transform="translate(388,310)"/>
<path d="M0 0 C1.32 0.66 2.64 1.32 4 2 C3.67 3.32 3.34 4.64 3 6 C1.68 6.33 0.36 6.66 -1 7 C-0.67 4.69 -0.34 2.38 0 0 Z " fill="#214C62" transform="translate(273,265)"/>
<path d="M0 0 C0.33 1.32 0.66 2.64 1 4 C1.99 3.67 2.98 3.34 4 3 C4 3.66 4 4.32 4 5 C3.01 5 2.02 5 1 5 C0.67 5.66 0.34 6.32 0 7 C-0.66 6.34 -1.32 5.68 -2 5 C-1.46428571 1.46428571 -1.46428571 1.46428571 0 0 Z " fill="#E1E8ED" transform="translate(203,250)"/>
<path d="M0 0 C2.35171131 0.59861742 4.6859378 1.26924352 7 2 C7.33 2.66 7.66 3.32 8 4 C2.25 4.125 2.25 4.125 0 3 C0 2.01 0 1.02 0 0 Z " fill="#5E798B" transform="translate(361,106)"/>
<path d="M0 0 C0.99 0.66 1.98 1.32 3 2 C-0.96 3.98 -0.96 3.98 -5 6 C-5 5.01 -5 4.02 -5 3 C-3.35 2.67 -1.7 2.34 0 2 C0 1.34 0 0.68 0 0 Z " fill="#8096A3" transform="translate(321,350)"/>
<path d="M0 0 C1.98 0.99 3.96 1.98 6 3 C4.68 3.33 3.36 3.66 2 4 C2 4.99 2 5.98 2 7 C1.34 7 0.68 7 0 7 C0 4.69 0 2.38 0 0 Z " fill="#E9EDED" transform="translate(284,249)"/>
<path d="M0 0 C2.5 1.375 2.5 1.375 5 3 C5 3.66 5 4.32 5 5 C2.03824877 4.38722388 0.61941217 3.74627478 -2 2 C-1.34 1.34 -0.68 0.68 0 0 Z " fill="#F0F4F7" transform="translate(277,245)"/>
<path d="M0 0 C2.97 0 5.94 0 9 0 C9 0.99 9 1.98 9 3 C5.47930015 2.41321669 3.28700157 1.64350079 0 0 Z " fill="#C0D0D9" transform="translate(262,245)"/>
<path d="M0 0 C0.66 0.33 1.32 0.66 2 1 C2 1.99 2 2.98 2 4 C1.01 4 0.02 4 -1 4 C-3.17032476 5.43990623 -3.17032476 5.43990623 -5 7 C-3.75023244 3.34683329 -3.32901247 2.21934164 0 0 Z " fill="#1A4A61" transform="translate(228,97)"/>
<path d="M0 0 C1.54571278 2.31856917 2.79618552 4.50638429 4 7 C3.01 7 2.02 7 1 7 C1 6.01 1 5.02 1 4 C-0.98 4 -2.96 4 -5 4 C-5 3.67 -5 3.34 -5 3 C-3.35 3 -1.7 3 0 3 C0 2.01 0 1.02 0 0 Z " fill="#566675" transform="translate(270,250)"/>
<path d="M0 0 C0.33 0 0.66 0 1 0 C1 2.64 1 5.28 1 8 C-0.32 8.33 -1.64 8.66 -3 9 C-3 8.01 -3 7.02 -3 6 C-2.01 6 -1.02 6 0 6 C0 4.02 0 2.04 0 0 Z " fill="#768696" transform="translate(219,246)"/>
<path d="M0 0 C-2.62111184 1.40416706 -5.03163146 2.6169847 -8 3 C-8.99 2.34 -9.98 1.68 -11 1 C-7.32589215 -0.17571451 -3.83070817 -0.07366746 0 0 Z " fill="#2D4D69" transform="translate(345,244)"/>
<path d="M0 0 C1.65 0 3.3 0 5 0 C5 0.66 5 1.32 5 2 C3.02 2.99 1.04 3.98 -1 5 C-1.33 4.01 -1.66 3.02 -2 2 C-1.34 2 -0.68 2 0 2 C0 1.34 0 0.68 0 0 Z " fill="#184866" transform="translate(311,227)"/>
<path d="M0 0 C0 0.66 0 1.32 0 2 C-2.97 1.67 -5.94 1.34 -9 1 C-4.82091936 -1.08954032 -4.19589427 -1.16552619 0 0 Z " fill="#3F5A67" transform="translate(304,223)"/>
<path d="M0 0 C3.65316671 1.24976756 4.78065836 1.67098753 7 5 C5.35 4.67 3.7 4.34 2 4 C2 3.34 2 2.68 2 2 C1.34 2 0.68 2 0 2 C0 1.34 0 0.68 0 0 Z " fill="#76909D" transform="translate(409,133)"/>
<path d="M0 0 C3.45925163 1.2491742 6.14693203 2.67527795 9 5 C6.75 5.25 6.75 5.25 4 5 C1.6875 3.0625 1.6875 3.0625 0 1 C0 0.67 0 0.34 0 0 Z " fill="#889FAE" transform="translate(331,88)"/>
<path d="M0 0 C0.99 0.33 1.98 0.66 3 1 C3.33 1.99 3.66 2.98 4 4 C2.68 4.33 1.36 4.66 0 5 C-0.66 3.68 -1.32 2.36 -2 1 C-1.34 0.67 -0.68 0.34 0 0 Z " fill="#1B4964" transform="translate(331,89)"/>
</svg>
