<?xml version="1.0" encoding="UTF-8"?>
<svg version="1.1" xmlns="http://www.w3.org/2000/svg" width="574" height="435">
<path d="M0 0 C189.42 0 378.84 0 574 0 C574 143.55 574 287.1 574 435 C384.58 435 195.16 435 0 435 C0 291.45 0 147.9 0 0 Z " fill="#FEFEFE" transform="translate(0,0)"/>
<path d="M0 0 C7.05156678 3.66768054 13.96209529 7.51689013 20.80078125 11.56738281 C22.90348953 12.80332585 25.0063561 14.03899964 27.109375 15.27441406 C28.14175293 15.88236816 29.17413086 16.49032227 30.23779297 17.11669922 C34.60221586 19.68137474 38.98103283 22.22081957 43.36328125 24.75488281 C44.14364746 25.20653809 44.92401367 25.65819336 45.72802734 26.12353516 C50.1184337 28.66219275 54.5182029 31.18361679 58.92578125 33.69238281 C66.24071814 37.86019569 73.50066886 42.12092735 80.7644043 46.37719727 C86.02408607 49.45085589 91.29954431 52.48949625 96.6171875 55.46191406 C97.64465088 56.03659424 98.67211426 56.61127441 99.73071289 57.20336914 C101.67621667 58.28785444 103.62445382 59.3674569 105.57592773 60.44116211 C122.99469707 70.14913026 122.99469707 70.14913026 126.23828125 79.87988281 C126.33752544 81.76452118 126.37759639 83.65248534 126.38545227 85.53971863 C126.39618523 87.30815628 126.39618523 87.30815628 126.40713501 89.11231995 C126.40982391 90.40741989 126.41251282 91.70251984 126.4152832 93.03686523 C126.42154923 94.41347423 126.42819615 95.79008155 126.43519592 97.16668701 C126.45622546 101.68956324 126.46659853 106.21243976 126.4765625 110.73535156 C126.48061073 112.293791 126.48472767 113.85223025 126.48891258 115.41066933 C126.50796328 122.73413809 126.52219352 130.0575968 126.53052455 137.38108557 C126.54029135 145.82673955 126.56659662 154.27213104 126.60702544 162.71769255 C126.63722053 169.25031032 126.65199671 175.782853 126.65530556 182.31553918 C126.65765256 186.21484896 126.66656667 190.11387829 126.69176674 194.01311302 C126.7151116 197.68464424 126.7192553 201.35571166 126.70900536 205.02729797 C126.70827687 207.00817344 126.72732378 208.98902568 126.74707031 210.96980286 C126.69806156 219.39028196 125.84592208 225.12700685 119.8125 231.40332031 C114.5984141 235.31429247 108.72623456 238.3263748 103.05078125 241.50488281 C101.78851594 242.21774532 100.52663753 242.93129331 99.26513672 243.64550781 C97.37043373 244.71805351 95.47548924 245.79014336 93.57922363 246.85992432 C88.31806978 249.82806159 83.08493792 252.84279122 77.86328125 255.87988281 C72.62493734 258.92173493 67.37814763 261.94665002 62.11328125 264.94238281 C57.21382901 267.73563374 52.34426291 270.57433494 47.48828125 273.44238281 C38.9194176 278.50301263 30.29957399 283.47410245 21.67480469 288.4387207 C20.10327637 289.34352173 20.10327637 289.34352173 18.5 290.26660156 C17.47052246 290.85876465 16.44104492 291.45092773 15.38037109 292.06103516 C11.14046031 294.51537357 6.92370435 297.00867828 2.71020508 299.50805664 C-2.40641272 302.34759001 -7.04424925 302.62614827 -12.76171875 301.87988281 C-21.06955454 298.51552219 -28.81818003 293.63119655 -36.51171875 289.06738281 C-38.61269515 287.83070947 -40.71425906 286.59503371 -42.81640625 285.36035156 C-43.82928711 284.76528809 -44.84216797 284.17022461 -45.88574219 283.55712891 C-50.92841441 280.61628356 -56.02453034 277.77434081 -61.12890625 274.94238281 C-63.93060135 273.37136084 -66.68664387 271.73356937 -69.4375 270.07519531 C-75.27230942 266.5579916 -81.16969328 263.15338435 -87.07421875 259.75488281 C-88.77130981 258.77636353 -88.77130981 258.77636353 -90.50268555 257.77807617 C-96.79837997 254.14975367 -103.10508575 250.54134727 -109.42260742 246.95117188 C-113.54292391 244.60667727 -117.65439116 242.2470454 -121.76171875 239.87988281 C-122.44669434 239.48687988 -123.13166992 239.09387695 -123.83740234 238.68896484 C-138.65740248 230.13335821 -138.65740248 230.13335821 -141.76171875 220.87988281 C-142.01898766 218.08494091 -142.01898766 218.08494091 -142.02914429 214.97953796 C-142.03767426 213.7978302 -142.04620422 212.61612244 -142.05499268 211.39860535 C-142.0540863 210.11069595 -142.05317993 208.82278656 -142.05224609 207.49584961 C-142.0582338 206.11894365 -142.0650399 204.74204104 -142.07260132 203.36514282 C-142.09024517 199.63153174 -142.09495604 195.89801237 -142.09623289 192.16436362 C-142.0976561 189.8293467 -142.10192894 187.49435297 -142.10722733 185.15934181 C-142.1257231 177.00635934 -142.13389861 168.85344221 -142.13232422 160.70043945 C-142.13112332 153.11196604 -142.15221653 145.52377728 -142.18381155 137.93537587 C-142.21000327 131.41119895 -142.22069029 124.88711483 -142.2194134 118.36288577 C-142.21890456 114.47032936 -142.22454391 110.57802593 -142.2457695 106.68552208 C-142.2652007 103.02214997 -142.26524357 99.35927087 -142.25073624 95.69588089 C-142.24766387 93.7198115 -142.26429088 91.7437418 -142.28161621 89.76774597 C-142.22147981 81.23602921 -141.35145433 75.46435485 -135.09765625 69.21972656 C-131.11077106 66.23018523 -126.73618258 63.85562054 -122.38671875 61.44238281 C-120.51112945 60.38613689 -118.63615389 59.32880057 -116.76171875 58.27050781 C-115.78332031 57.71943359 -114.80492187 57.16835937 -113.796875 56.60058594 C-108.63509032 53.67424598 -103.5103635 50.68485724 -98.38671875 47.69238281 C-97.37279053 47.10078369 -96.3588623 46.50918457 -95.31420898 45.8996582 C-89.66830778 42.59904124 -84.04547977 39.26389023 -78.44921875 35.87988281 C-73.53995234 32.91141127 -68.57928652 30.0694735 -63.51953125 27.36425781 C-55.5628255 23.08161166 -47.74685662 18.56959527 -39.94921875 14.00488281 C-33.8671875 10.45019531 -33.8671875 10.45019531 -30.84521484 8.68554688 C-28.70461365 7.43203251 -26.56712999 6.17318519 -24.43212891 4.91015625 C-22.8260376 3.96317871 -22.8260376 3.96317871 -21.1875 2.99707031 C-20.21852783 2.42327637 -19.24955566 1.84948242 -18.2512207 1.25830078 C-12.45987715 -1.94832133 -6.17897319 -2.50611112 0 0 Z " fill="#184E6F" transform="translate(294.76171875,67.1201171875)"/>
<path d="M0 0 C6.23990116 4.92684933 9.36750526 11.15329704 11.84765625 18.59375 C12.6957141 29.93826162 10.92774749 38.43356753 5.84765625 48.59375 C7.82765625 50.90375 9.80765625 53.21375 11.84765625 55.59375 C9.59765625 58.15625 9.59765625 58.15625 6.84765625 60.59375 C4.84765625 60.65625 4.84765625 60.65625 2.84765625 59.59375 C2.18765625 58.871875 1.52765625 58.15 0.84765625 57.40625 C-3.41757938 54.82933681 -6.15807013 56.08646993 -10.890625 57.05859375 C-19.09412335 58.40455695 -27.29053078 57.4696387 -34.15234375 52.59375 C-40.71622127 47.40464765 -44.55030728 40.81354458 -46.15234375 32.59375 C-47.00260156 21.52645985 -45.96475289 12.94836841 -38.83984375 4.21875 C-28.9020218 -6.33752009 -12.17106121 -7.95205451 0 0 Z " fill="#FBFBFC" transform="translate(304.15234375,167.40625)"/>
<path d="M0 0 C2.02411204 1.01205602 4.0065935 2.00404118 5.9375 3.1875 C7.98186286 4.2096434 7.98186286 4.2096434 10.171875 3.5546875 C13.60270101 2.88179069 16.81869896 2.90484765 20.3125 2.9375 C21.56675781 2.94652344 22.82101562 2.95554688 24.11328125 2.96484375 C25.06589844 2.97644531 26.01851563 2.98804688 27 3 C27.33 2.34 27.66 1.68 28 1 C29.32 1 30.64 1 32 1 C32.495 2.98 32.495 2.98 33 5 C33.99 4.34 34.98 3.68 36 3 C41.44444444 3.44444444 41.44444444 3.44444444 44 6 C44.33333333 11.33333333 44.33333333 11.33333333 43 14 C42.34 14 41.68 14 41 14 C42.15173355 16.46800047 43.04783565 18.04783565 45 20 C42 21 42 21 39 20 C39.495 18.515 39.495 18.515 40 17 C37.03 17.33 34.06 17.66 31 18 C30.67 21.96 30.34 25.92 30 30 C27.69 30.33 25.38 30.66 23 31 C23 30.34 23 29.68 23 29 C21.68 29.33 20.36 29.66 19 30 C18.75 27.25 18.75 27.25 19 24 C21 21.625 21 21.625 23 20 C22.34 19.34 21.68 18.68 21 18 C18.91051155 18.13125728 18.91051155 18.13125728 16.625 18.625 C14.19921875 18.97265625 14.19921875 18.97265625 12 19 C9.4375 17.0625 9.4375 17.0625 8 15 C8 15.99 8 16.98 8 18 C6.68 18 5.36 18 4 18 C5.39195915 20.7839183 7.15575779 20.97898997 10 22 C9.67 24.64 9.34 27.28 9 30 C7.35 30.33 5.7 30.66 4 31 C4 30.34 4 29.68 4 29 C2.081875 29.2475 2.081875 29.2475 0.125 29.5 C-1.94627065 29.76726073 -3.91103575 30 -6 30 C-6.66 28.68 -7.32 27.36 -8 26 C-9.485 28.475 -9.485 28.475 -11 31 C-12.32 30.67 -13.64 30.34 -15 30 C-15.93423645 26.98968256 -16.04449911 26.13349732 -15 23 C-14.01 22.67 -13.02 22.34 -12 22 C-12.99 21.67 -13.98 21.34 -15 21 C-14.67 19.35 -14.34 17.7 -14 16 C-14.763125 15.9175 -15.52625 15.835 -16.3125 15.75 C-19 15 -19 15 -20.875 13.25 C-22 11 -22 11 -21.875 8.4375 C-20.90775384 5.74302856 -20.29147747 4.69002677 -18 3 C-15.30078125 2.92578125 -15.30078125 2.92578125 -12.3125 3.3125 C-10.82169922 3.49232422 -10.82169922 3.49232422 -9.30078125 3.67578125 C-8.54152344 3.78277344 -7.78226562 3.88976562 -7 4 C-7 5.32 -7 6.64 -7 8 C-5.68 8 -4.36 8 -3 8 C-3 6.35 -3 4.7 -3 3 C-2.01 3 -1.02 3 0 3 C0 2.01 0 1.02 0 0 Z " fill="#2B546E" transform="translate(293,242)"/>
<path d="M0 0 C4.32698088 2.06649184 6.988267 5.74087384 9 10 C9.40411072 13.05145574 9.37416371 16.0516806 9.3125 19.125 C9.31733398 20.34123047 9.31733398 20.34123047 9.32226562 21.58203125 C9.26756912 27.59864631 9.26756912 27.59864631 7 31 C4.33333333 29.66666667 1.66666667 28.33333333 -1 27 C-3.14567913 28.72855926 -3.14567913 28.72855926 -5 31 C-4.81367553 34.07435378 -3.75085936 35.37371096 -2 38 C-6.62186951 38.36974956 -10.05541223 38.44556027 -14.3125 36.4375 C-19.02863969 32.16007098 -20.77022927 29.51198791 -21.34765625 23.19921875 C-21.39263179 21.77904218 -21.42233009 20.35830757 -21.4375 18.9375 C-21.44765137 18.25268555 -21.45780273 17.56787109 -21.46826172 16.86230469 C-21.36229245 10.68026662 -19.50762497 6.77822432 -15.5625 2.125 C-11.04923315 -1.35892529 -5.37465753 -0.92158051 0 0 Z " fill="#1C4F6E" transform="translate(293,175)"/>
<path d="M0 0 C1.49080078 0.17982422 1.49080078 0.17982422 3.01171875 0.36328125 C3.77097656 0.47027344 4.53023438 0.57726562 5.3125 0.6875 C5.3125 2.0075 5.3125 3.3275 5.3125 4.6875 C6.6325 4.6875 7.9525 4.6875 9.3125 4.6875 C9.3125 3.3675 9.3125 2.0475 9.3125 0.6875 C10.3025 0.6875 11.2925 0.6875 12.3125 0.6875 C12.3125 4.3175 12.3125 7.9475 12.3125 11.6875 C11.3225 12.1825 11.3225 12.1825 10.3125 12.6875 C11.6325 13.3475 12.9525 14.0075 14.3125 14.6875 C12.3125 17.6875 12.3125 17.6875 11.3125 18.6875 C11.6425 19.3475 11.9725 20.0075 12.3125 20.6875 C12.352492 22.68710012 12.35596799 24.68797242 12.3125 26.6875 C10.3325 26.6875 8.3525 26.6875 6.3125 26.6875 C5.6525 25.3675 4.9925 24.0475 4.3125 22.6875 C2.8275 25.1625 2.8275 25.1625 1.3125 27.6875 C-0.0075 27.3575 -1.3275 27.0275 -2.6875 26.6875 C-3.62173645 23.67718256 -3.73199911 22.82099732 -2.6875 19.6875 C-1.6975 19.3575 -0.7075 19.0275 0.3125 18.6875 C-0.6775 18.3575 -1.6675 18.0275 -2.6875 17.6875 C-2.3575 16.0375 -2.0275 14.3875 -1.6875 12.6875 C-2.450625 12.605 -3.21375 12.5225 -4 12.4375 C-6.6875 11.6875 -6.6875 11.6875 -8.5625 9.9375 C-9.6875 7.6875 -9.6875 7.6875 -9.5625 5.125 C-7.66679135 -0.15590267 -5.38337249 -0.69667173 0 0 Z " fill="#174F72" transform="translate(280.6875,245.3125)"/>
<path d="M0 0 C2.01283758 3.34970592 2.24570563 5.8828675 2.23377991 9.76231384 C2.23508408 10.93856827 2.23638824 12.11482269 2.23773193 13.32672119 C2.22897034 14.61358826 2.22020874 15.90045532 2.21118164 17.22631836 C2.20897985 18.59808746 2.20767482 19.96985825 2.2071991 21.34162903 C2.20426718 24.29364154 2.19502479 27.24554315 2.18089485 30.19752312 C2.15861907 34.86610151 2.15053693 39.53463881 2.14439392 44.20326233 C2.1330136 51.58851656 2.11228902 58.97370986 2.08749622 66.35893017 C2.04317992 79.5818033 2.0099678 92.80469744 1.98725218 106.02762514 C1.9788497 110.66767085 1.96482926 115.30765593 1.94627964 119.94767177 C1.93562506 122.83558776 1.92904867 125.7235032 1.92347908 128.61143303 C1.9183616 130.58688402 1.90815525 132.56231978 1.89779663 134.53775024 C1.89628098 135.71682449 1.89476532 136.89589874 1.89320374 138.11070251 C1.88968431 139.13330642 1.88616488 140.15591032 1.8825388 141.20950222 C1.99626169 143.91118993 2.39132725 146.36960354 3 149 C2.34 149 1.68 149 1 149 C-0.75599048 145.20259678 -1.24944146 142.23698403 -1.24723816 138.06600952 C-1.25143265 136.87707596 -1.25562714 135.6881424 -1.25994873 134.46318054 C-1.25432922 133.16741592 -1.24870972 131.87165131 -1.24291992 130.53662109 C-1.24399342 129.15160533 -1.2459331 127.76659001 -1.24867249 126.38157654 C-1.2535123 122.62761415 -1.24587656 118.87377096 -1.23571944 115.11982298 C-1.2269271 111.1907741 -1.2286966 107.26172883 -1.2290802 103.33267212 C-1.22814425 96.73706063 -1.2194685 90.14149521 -1.20581055 83.54589844 C-1.19007275 75.91767004 -1.18481294 68.28949203 -1.1855461 60.66124856 C-1.18615613 53.32335929 -1.18105378 45.98548643 -1.17275429 38.64760208 C-1.16922165 35.52406308 -1.16739107 32.40052989 -1.16686058 29.27698898 C-1.16585707 25.60146041 -1.15975975 21.92597425 -1.14969444 18.25045967 C-1.14537407 16.25556498 -1.14594143 14.26066158 -1.14663696 12.26576233 C-1.14237198 11.08246841 -1.13810699 9.8991745 -1.13371277 8.68002319 C-1.13203692 7.64950018 -1.13036108 6.61897717 -1.12863445 5.55722618 C-1 3 -1 3 0 0 Z " fill="#33546C" transform="translate(154,144)"/>
<path d="M0 0 C1.66666667 0 3.33333333 0 5 0 C5.33 1.32 5.66 2.64 6 4 C6.99 3.34 7.98 2.68 9 2 C14.44444444 2.44444444 14.44444444 2.44444444 17 5 C17.55977223 10.26185894 17.55977223 10.26185894 15.73120117 12.6730957 C13.62444126 14.28785245 12.61377558 14.35219043 9.98828125 14.29296875 C9.23095703 14.28330078 8.47363281 14.27363281 7.69335938 14.26367188 C6.51483398 14.2259668 6.51483398 14.2259668 5.3125 14.1875 C4.11657227 14.16719727 4.11657227 14.16719727 2.89648438 14.14648438 C0.93070033 14.11117089 -1.03473582 14.05736447 -3 14 C-3 10.37 -3 6.74 -3 3 C-2.01 2.67 -1.02 2.34 0 2 C0 1.34 0 0.68 0 0 Z " fill="#486A80" transform="translate(320,243)"/>
<path d="M0 0 C6.27 0 12.54 0 19 0 C19 0.99 19 1.98 19 3 C17.02 3 15.04 3 13 3 C13 3.66 13 4.32 13 5 C14.65 5 16.3 5 18 5 C18.33 7.64 18.66 10.28 19 13 C13.55306686 13.09688221 8.36095333 13.12862175 3 12 C3 9.03 3 6.06 3 3 C2.01 3 1.02 3 0 3 C0 2.01 0 1.02 0 0 Z " fill="#506D81" transform="translate(252,245)"/>
<path d="M0 0 C2.97 0 5.94 0 9 0 C9 0.99 9 1.98 9 3 C7.02 3 5.04 3 3 3 C3 3.66 3 4.32 3 5 C4.65 5 6.3 5 8 5 C8.33 5.99 8.66 6.98 9 8 C10.89179203 8.6814823 10.89179203 8.6814823 13 9 C13.99 9.33 14.98 9.66 16 10 C16 9.34 16 8.68 16 8 C14.35 7.67 12.7 7.34 11 7 C10.375 4.625 10.375 4.625 10 2 C10.66 1.34 11.32 0.68 12 0 C15.125 0.375 15.125 0.375 18 1 C18 1.99 18 2.98 18 4 C15.525 3.505 15.525 3.505 13 3 C13 3.66 13 4.32 13 5 C14.65 5.33 16.3 5.66 18 6 C18.33 7.65 18.66 9.3 19 11 C16.28148823 12.35925589 14.00882974 12.06268395 11 12 C10.34 12 9.68 12 9 12 C6 12 3 12 0 12 C0 8.04 0 4.08 0 0 Z " fill="#ECEFF2" transform="translate(354,245)"/>
<path d="M0 0 C2.4375 0.9375 2.4375 0.9375 3.75 3 C4.0903125 3.9590625 4.0903125 3.9590625 4.4375 4.9375 C3.4475 4.9375 2.4575 4.9375 1.4375 4.9375 C1.4375 4.2775 1.4375 3.6175 1.4375 2.9375 C0.4475 3.2675 -0.5425 3.5975 -1.5625 3.9375 C-1.5625 5.5875 -1.5625 7.2375 -1.5625 8.9375 C-0.5725 9.2675 0.4175 9.5975 1.4375 9.9375 C1.4375 9.2775 1.4375 8.6175 1.4375 7.9375 C0.7775 7.9375 0.1175 7.9375 -0.5625 7.9375 C-0.5625 7.2775 -0.5625 6.6175 -0.5625 5.9375 C1.4175 5.9375 3.3975 5.9375 5.4375 5.9375 C5.4375 4.2875 5.4375 2.6375 5.4375 0.9375 C6.7575 0.6075 8.0775 0.2775 9.4375 -0.0625 C9.4375 3.8975 9.4375 7.8575 9.4375 11.9375 C7.31277424 11.99136629 5.18766348 12.03023071 3.0625 12.0625 C1.28746094 12.09730469 1.28746094 12.09730469 -0.5234375 12.1328125 C-3.5625 11.9375 -3.5625 11.9375 -5.5625 9.9375 C-6.11436722 3.86696058 -6.11436722 3.86696058 -4.375 0.9375 C-2.5625 -0.0625 -2.5625 -0.0625 0 0 Z " fill="#F5F7F8" transform="translate(343.5625,245.0625)"/>
<path d="M0 0 C3.33333333 0 6.66666667 0 10 0 C10 0.33 10 0.66 10 1 C8.35 1 6.7 1 5 1 C4.67 4.96 4.34 8.92 4 13 C1.69 13.33 -0.62 13.66 -3 14 C-3 13.34 -3 12.68 -3 12 C-4.32 12.33 -5.64 12.66 -7 13 C-7.33074549 9.36179956 -7.48805542 7.6226914 -5.1875 4.6875 C-3 3 -3 3 0 2 C0 1.34 0 0.68 0 0 Z " fill="#426C86" transform="translate(319,259)"/>
<path d="M0 0 C2.23551759 3.35327639 2.17283528 3.90743657 1.625 7.6875 C1.45871094 8.89986328 1.45871094 8.89986328 1.2890625 10.13671875 C1.19367188 10.75160156 1.09828125 11.36648438 1 12 C-6.75 11.25 -6.75 11.25 -9 9 C-9.54782609 2.97391304 -9.54782609 2.97391304 -7.875 0 C-4.98192987 -1.54297074 -3.06359725 -0.91256088 0 0 Z " fill="#EFF1F3" transform="translate(210,246)"/>
<path d="M0 0 C2.4375 0.75 2.4375 0.75 4.4375 2.75 C4.6875 6.25 4.6875 6.25 4.4375 9.75 C2.4375 11.75 2.4375 11.75 -0.5 12.0625 C-3.5625 11.75 -3.5625 11.75 -5.5 10.6875 C-7.22915678 7.53433176 -6.4215699 5.12491745 -5.5625 1.75 C-2.5625 -0.25 -2.5625 -0.25 0 0 Z " fill="#F1F3F5" transform="translate(311.5625,245.25)"/>
<path d="M0 0 C5.75 0.75 5.75 0.75 8 3 C8.32954432 6.09771665 8.45334601 8.17331023 6.9375 10.9375 C3.87530347 12.61676907 1.30629059 11.68621125 -2 11 C-3.35384615 4.6 -3.35384615 4.6 -1.5625 1.5625 C-1.046875 1.046875 -0.53125 0.53125 0 0 Z " fill="#F6F8F9" transform="translate(329,245)"/>
<path d="M0 0 C3.375 -0.125 3.375 -0.125 7 0 C9.24497221 2.24497221 9.37003419 2.96027349 9.75 6 C9.89695313 7.051875 9.89695313 7.051875 10.046875 8.125 C10 10 10 10 8 12 C5.31160615 12.26991906 2.70858064 12.08737357 0 12 C0 8.04 0 4.08 0 0 Z " fill="#DCE0E3" transform="translate(224,245)"/>
<path d="M0 0 C4.29 0 8.58 0 13 0 C13 0.99 13 1.98 13 3 C12.01 3 11.02 3 10 3 C10 5.97 10 8.94 10 12 C8.68 12 7.36 12 6 12 C6 9.03 6 6.06 6 3 C5.01 3 4.02 3 3 3 C3 5.97 3 8.94 3 12 C2.01 12 1.02 12 0 12 C0 8.04 0 4.08 0 0 Z " fill="#E9EEF1" transform="translate(235,245)"/>
<path d="M0 0 C2.9375 0.375 2.9375 0.375 6 1 C7.35439668 3.70879335 7.06501451 6.00933268 7 9 C5.02 9 3.04 9 1 9 C0.34 7.68 -0.32 6.36 -1 5 C-2.485 7.475 -2.485 7.475 -4 10 C-5.32 9.67 -6.64 9.34 -8 9 C-8.93423645 5.98968256 -9.04449911 5.13349732 -8 2 C-5.36 2 -2.72 2 0 2 C0 1.34 0 0.68 0 0 Z " fill="#345B73" transform="translate(286,263)"/>
<path d="M0 0 C1.65 0 3.3 0 5 0 C4.67 0.66 4.34 1.32 4 2 C3.83330682 5.54171978 3.83330682 5.54171978 4 9 C5.87824891 10.87824891 9.03935276 10.39102397 11.5625 10.5625 C12.76003906 10.64628906 13.95757812 10.73007812 15.19140625 10.81640625 C16.11824219 10.87699219 17.04507812 10.93757813 18 11 C18 7.37 18 3.74 18 0 C18.33 0 18.66 0 19 0 C19 3.63 19 7.26 19 11 C21.97 11 24.94 11 28 11 C28.33 10.34 28.66 9.68 29 9 C30.98 9.66 32.96 10.32 35 11 C35 11.33 35 11.66 35 12 C29.39 12 23.78 12 18 12 C17.67 12.99 17.34 13.98 17 15 C13.53058454 14.54177532 10.32604951 14.10868317 7 13 C6.175 12.855625 5.35 12.71125 4.5 12.5625 C2 12 2 12 -1 10 C-0.34 10 0.32 10 1 10 C1.020625 8.72125 1.04125 7.4425 1.0625 6.125 C1.07410156 5.40570313 1.08570313 4.68640625 1.09765625 3.9453125 C1.12649242 1.91814596 1.12649242 1.91814596 0 0 Z " fill="#3A596F" transform="translate(335,246)"/>
<path d="M0 0 C0.66 0 1.32 0 2 0 C2.66 1.65 3.32 3.3 4 5 C4.33 4.01 4.66 3.02 5 2 C7.31 2.33 9.62 2.66 12 3 C11.34 5.31 10.68 7.62 10 10 C9.01 10 8.02 10 7 10 C7 9.01 7 8.02 7 7 C6.2575 7.680625 5.515 8.36125 4.75 9.0625 C2 11 2 11 -0.3125 10.75 C-0.869375 10.5025 -1.42625 10.255 -2 10 C-2.25 3.375 -2.25 3.375 0 0 Z " fill="#335C74" transform="translate(262,263)"/>
<path d="M0 0 C1.32 0 2.64 0 4 0 C4.66 1.32 5.32 2.64 6 4 C6.33 2.68 6.66 1.36 7 0 C7.99 0 8.98 0 10 0 C10 3.63 10 7.26 10 11 C6 10 6 10 4 7 C3.67 8.32 3.34 9.64 3 11 C2.01 11 1.02 11 0 11 C0 7.37 0 3.74 0 0 Z " fill="#F4F6F7" transform="translate(294,246)"/>
<path d="M0 0 C2.48950462 0.46101937 4.14191076 1.0882148 6.3125 2.4375 C9.05857472 4.19161569 9.05857472 4.19161569 12.75 5 C13.8225 5.33 14.895 5.66 16 6 C16.33 6.99 16.66 7.98 17 9 C17.66 9 18.32 9 19 9 C19 9.66 19 10.32 19 11 C21.475 11.495 21.475 11.495 24 12 C24 12.66 24 13.32 24 14 C24.61875 13.79375 25.2375 13.5875 25.875 13.375 C26.926875 13.189375 26.926875 13.189375 28 13 C28.66 13.66 29.32 14.32 30 15 C29.34 15 28.68 15 28 15 C28 15.66 28 16.32 28 17 C24.29102741 15.60582632 20.92161688 13.92181521 17.48046875 11.9609375 C16.45888672 11.38085938 15.43730469 10.80078125 14.38476562 10.203125 C13.32966797 9.59984375 12.27457031 8.9965625 11.1875 8.375 C9.57584961 7.45847656 9.57584961 7.45847656 7.93164062 6.5234375 C5.28613924 5.01844115 2.6423375 3.51054209 0 2 C0 1.34 0 0.68 0 0 Z " fill="#2E5269" transform="translate(180,309)"/>
<path d="M0 0 C0.99 0 1.98 0 3 0 C3 1.32 3 2.64 3 4 C4.32 4 5.64 4 7 4 C7 2.68 7 1.36 7 0 C7.99 0 8.98 0 10 0 C10 3.63 10 7.26 10 11 C9.01 11 8.02 11 7 11 C7 9.68 7 8.36 7 7 C5.68 7 4.36 7 3 7 C3 8.32 3 9.64 3 11 C2.01 11 1.02 11 0 11 C0 7.37 0 3.74 0 0 Z " fill="#F6F8F9" transform="translate(283,246)"/>
<path d="M0 0 C2.97 0 5.94 0 9 0 C9 0.66 9 1.32 9 2 C7.02 2 5.04 2 3 2 C3 2.66 3 3.32 3 4 C4.65 4 6.3 4 8 4 C8.33 6.31 8.66 8.62 9 11 C6.03 11 3.06 11 0 11 C0 7.37 0 3.74 0 0 Z " fill="#F4F5F7" transform="translate(262,246)"/>
<path d="M0 0 C2.4375 0.9375 2.4375 0.9375 3.75 3 C4.0903125 3.9590625 4.0903125 3.9590625 4.4375 4.9375 C1.4675 4.4425 1.4675 4.4425 -1.5625 3.9375 C-1.5625 5.5875 -1.5625 7.2375 -1.5625 8.9375 C-0.9025 8.9375 -0.2425 8.9375 0.4375 8.9375 C0.7675 8.2775 1.0975 7.6175 1.4375 6.9375 C2.4275 6.9375 3.4175 6.9375 4.4375 6.9375 C3.5625 10.8125 3.5625 10.8125 2.4375 11.9375 C-0.4375 12.25 -0.4375 12.25 -3.5625 11.9375 C-5.5 10.25 -5.5 10.25 -6.5625 7.9375 C-6.42258938 5.06933219 -5.90153136 3.44604704 -4.3125 1.0625 C-2.5625 -0.0625 -2.5625 -0.0625 0 0 Z " fill="#F2F4F6" transform="translate(277.5625,245.0625)"/>
<path d="M0 0 C0.99 0 1.98 0 3 0 C3.05422947 1.4370809 3.09289723 2.87475462 3.125 4.3125 C3.14820313 5.11300781 3.17140625 5.91351563 3.1953125 6.73828125 C3 9 3 9 1 12 C-2.07921132 12.25660094 -4.21136993 12.39431504 -7 11 C-7 7.7 -7 4.4 -7 1 C-6.01 1 -5.02 1 -4 1 C-4 3.97 -4 6.94 -4 10 C-3.01 9.67 -2.02 9.34 -1 9 C-0.67 6.03 -0.34 3.06 0 0 Z " fill="#EEF1F3" transform="translate(220,245)"/>
<path d="M0 0 C1.32 0.33 2.64 0.66 4 1 C4 4.63 4 8.26 4 12 C4.99 12.33 5.98 12.66 7 13 C4.69 13.66 2.38 14.32 0 15 C0 14.34 0 13.68 0 13 C-1.32 12.67 -2.64 12.34 -4 12 C-3.030625 11.731875 -2.06125 11.46375 -1.0625 11.1875 C-0.051875 10.795625 0.95875 10.40375 2 10 C2.33 9.01 2.66 8.02 3 7 C2.01 7 1.02 7 0 7 C-0.33 7.99 -0.66 8.98 -1 10 C-1.99 9.67 -2.98 9.34 -4 9 C-4 7.35 -4 5.7 -4 4 C0 4 0 4 3 5 C2.01 3.35 1.02 1.7 0 0 Z " fill="#3F5B6E" transform="translate(279,245)"/>
<path d="M0 0 C2.64 0 5.28 0 8 0 C7.01 0.33 6.02 0.66 5 1 C5 4.3 5 7.6 5 11 C7.97 11 10.94 11 14 11 C14 11.66 14 12.32 14 13 C11.36 13.33 8.72 13.66 6 14 C6 13.34 6 12.68 6 12 C5.34 12 4.68 12 4 12 C4 12.66 4 13.32 4 14 C-0.29299643 15.26264601 -2.87831311 14.62950412 -7 13 C-6.67 12.01 -6.34 11.02 -6 10 C-3.03 10.99 -0.06 11.98 3 13 C3.48145231 6.93244269 3.48145231 6.93244269 1.5 1.4375 C1.005 0.963125 0.51 0.48875 0 0 Z " fill="#476373" transform="translate(208,245)"/>
<path d="M0 0 C1.32 0 2.64 0 4 0 C4 0.66 4 1.32 4 2 C4.99 2 5.98 2 7 2 C7.0270043 3.45823212 7.04639787 4.91660675 7.0625 6.375 C7.07410156 7.18710938 7.08570313 7.99921875 7.09765625 8.8359375 C7 11 7 11 6 13 C5.34 13 4.68 13 4 13 C4 12.34 4 11.68 4 11 C3.34 11 2.68 11 2 11 C2 8.36 2 5.72 2 3 C1.34 2.67 0.68 2.34 0 2 C0 1.34 0 0.68 0 0 Z " fill="#25536C" transform="translate(248,246)"/>
<path d="M0 0 C0.99 0 1.98 0 3 0 C3 3.96 3 7.92 3 12 C1.35 12 -0.3 12 -2 12 C-1.85962479 10.18706911 -1.71255111 8.3746557 -1.5625 6.5625 C-1.48128906 5.55316406 -1.40007812 4.54382813 -1.31640625 3.50390625 C-1 1 -1 1 0 0 Z " fill="#C9D1D8" transform="translate(350,245)"/>
<path d="M0 0 C2.4375 0.8125 2.4375 0.8125 5 2 C6.04449911 5.13349732 5.93423645 5.98968256 5 9 C4.01 9 3.02 9 2 9 C2 8.34 2 7.68 2 7 C0.68 7.33 -0.64 7.66 -2 8 C-2.125 5.125 -2.125 5.125 -2 2 C-1.34 1.34 -0.68 0.68 0 0 Z " fill="#365C75" transform="translate(314,264)"/>
<path d="M0 0 C4.29 0 8.58 0 13 0 C13 0.33 13 0.66 13 1 C10.03 1 7.06 1 4 1 C3.67 4.63 3.34 8.26 3 12 C2.01 12 1.02 12 0 12 C0 8.04 0 4.08 0 0 Z " fill="#D5DDE2" transform="translate(235,245)"/>
<path d="M0 0 C0.66 0 1.32 0 2 0 C2 3.3 2 6.6 2 10 C3.65 10 5.3 10 7 10 C7 10.66 7 11.32 7 12 C4.36 12 1.72 12 -1 12 C-1.02687279 10.18757948 -1.04633715 8.37504767 -1.0625 6.5625 C-1.07410156 5.55316406 -1.08570313 4.54382813 -1.09765625 3.50390625 C-1 1 -1 1 0 0 Z " fill="#EAEEF0" transform="translate(318,245)"/>
<path d="M0 0 C2.97 0 5.94 0 9 0 C9 0.66 9 1.32 9 2 C8.01 2 7.02 2 6 2 C6 4.97 6 7.94 6 11 C5.01 11 4.02 11 3 11 C3 8.03 3 5.06 3 2 C2.01 2 1.02 2 0 2 C0 1.34 0 0.68 0 0 Z " fill="#FCFDFE" transform="translate(252,246)"/>
<path d="M0 0 C0.33 0 0.66 0 1 0 C1 3.63 1 7.26 1 11 C1.99 11 2.98 11 4 11 C3.67 11.66 3.34 12.32 3 13 C0.49609375 13.4140625 0.49609375 13.4140625 -2.5625 13.625 C-3.57441406 13.69976562 -4.58632812 13.77453125 -5.62890625 13.8515625 C-6.41136719 13.90054687 -7.19382813 13.94953125 -8 14 C-8 13.34 -8 12.68 -8 12 C-8.66 11.67 -9.32 11.34 -10 11 C-7.94921875 10.77213542 -5.8984375 10.54427083 -3.84765625 10.31640625 C-1.98859771 10.18113386 -1.98859771 10.18113386 -1 9 C-0.76807135 7.48530552 -0.58784762 5.96245438 -0.4375 4.4375 C-0.35371094 3.61121094 -0.26992187 2.78492188 -0.18359375 1.93359375 C-0.12300781 1.29550781 -0.06242188 0.65742188 0 0 Z " fill="#416076" transform="translate(234,246)"/>
<path d="M0 0 C2.97 0.495 2.97 0.495 6 1 C5.01 1.33 4.02 1.66 3 2 C3 4.97 3 7.94 3 11 C1.68 11.33 0.36 11.66 -1 12 C-1 9.03 -1 6.06 -1 3 C-0.34 3 0.32 3 1 3 C0.67 2.01 0.34 1.02 0 0 Z " fill="#25506D" transform="translate(217,243)"/>
<path d="M0 0 C0.72445313 0.39832031 1.44890625 0.79664062 2.1953125 1.20703125 C7.09133453 3.89005132 11.97918814 6.55744288 17 9 C13.14903552 10.48114019 10.76540594 9.38321035 7 8 C5.33911955 7.63893903 3.67381019 7.29537827 2 7 C2 6.01 2 5.02 2 4 C1.05021103 1.84971696 1.05021103 1.84971696 0 0 Z " fill="#325870" transform="translate(327,86)"/>
<path d="M0 0 C2.31 0 4.62 0 7 0 C7.33 1.65 7.66 3.3 8 5 C10.64 5.33 13.28 5.66 16 6 C16 6.33 16 6.66 16 7 C11.17143834 7.38628493 7.88514023 7.45837619 3.5 5.1875 C1 3 1 3 0 0 Z " fill="#3C5D76" transform="translate(275,206)"/>
<path d="M0 0 C-0.55171875 0.26554688 -1.1034375 0.53109375 -1.671875 0.8046875 C-4.27039525 2.13882709 -6.75122955 3.61258631 -9.25 5.125 C-10.14203125 5.66382813 -11.0340625 6.20265625 -11.953125 6.7578125 C-12.62859375 7.16773438 -13.3040625 7.57765625 -14 8 C-13.67 5.69 -13.34 3.38 -13 1 C-4.14893617 -1.38297872 -4.14893617 -1.38297872 0 0 Z " fill="#28516F" transform="translate(280,163)"/>
<path d="M0 0 C-0.66 1.32 -1.32 2.64 -2 4 C-3.65 4 -5.3 4 -7 4 C-7 4.66 -7 5.32 -7 6 C-7.99 6 -8.98 6 -10 6 C-10 6.66 -10 7.32 -10 8 C-13.47307692 10.10865385 -13.47307692 10.10865385 -16.140625 9.55859375 C-17.06101563 9.28208984 -17.06101563 9.28208984 -18 9 C-15.56721456 7.49185257 -13.12933973 5.99335653 -10.6875 4.5 C-9.99720703 4.07074219 -9.30691406 3.64148438 -8.59570312 3.19921875 C-7.92861328 2.79316406 -7.26152344 2.38710937 -6.57421875 1.96875 C-5.96151123 1.59169922 -5.34880371 1.21464844 -4.7175293 0.82617188 C-3 0 -3 0 0 0 Z " fill="#2E566F" transform="translate(261,79)"/>
<path d="M0 0 C0.33 0.66 0.66 1.32 1 2 C1.66 2.33 2.32 2.66 3 3 C0.34771188 4.07525194 -2.28368454 5.09456151 -5 6 C-5.33 6.66 -5.66 7.32 -6 8 C-8.64860427 8.59355614 -11.29197322 8.74209269 -14 9 C-9.7045025 5.25876024 -5.00099548 2.65848126 0 0 Z " fill="#335671" transform="translate(208,108)"/>
<path d="M0 0 C1.66611905 -0.042721 3.33382885 -0.04063832 5 0 C6 1 6 1 6.0625 3.5625 C6.041875 4.366875 6.02125 5.17125 6 6 C4.34385343 6.38218767 2.67542976 6.71395102 1 7 C0 6 0 6 -0.0625 2.9375 C-0.041875 1.968125 -0.02125 0.99875 0 0 Z " fill="#D6DEE3" transform="translate(250,266)"/>
<path d="M0 0 C0.226875 0.61875 0.45375 1.2375 0.6875 1.875 C2.37929835 4.61410209 3.99244161 5.05024472 7 6 C7 6.66 7 7.32 7 8 C5.96875 7.835 4.9375 7.67 3.875 7.5 C0.51755674 7.06678152 -2.62336157 6.91764297 -6 7 C-6 6.67 -6 6.34 -6 6 C-4.35 6 -2.7 6 -1 6 C-1 5.01 -1 4.02 -1 3 C-2.65 3 -4.3 3 -6 3 C-6 2.34 -6 1.68 -6 1 C-4.02 0.67 -2.04 0.34 0 0 Z " fill="#566877" transform="translate(363,247)"/>
<path d="M0 0 C1.65 0 3.3 0 5 0 C4.67 0.66 4.34 1.32 4 2 C3.95977609 4.3329866 3.95679753 6.66706666 4 9 C5.98 9.66 7.96 10.32 10 11 C9.67 11.66 9.34 12.32 9 13 C2.375 12.25 2.375 12.25 -1 10 C-0.34 10 0.32 10 1 10 C1.020625 8.72125 1.04125 7.4425 1.0625 6.125 C1.07410156 5.40570313 1.08570313 4.68640625 1.09765625 3.9453125 C1.12649242 1.91814596 1.12649242 1.91814596 0 0 Z " fill="#476377" transform="translate(335,246)"/>
<path d="M0 0 C0.99 0.33 1.98 0.66 3 1 C2.34 1.66 1.68 2.32 1 3 C1.34227572 5.97065509 1.34227572 5.97065509 2 9 C2 9.99 2 10.98 2 12 C1.608125 11.525625 1.21625 11.05125 0.8125 10.5625 C-1.40808374 8.64820367 -3.13375709 8.38733012 -6 8 C-6 7.67 -6 7.34 -6 7 C-4.35 7 -2.7 7 -1 7 C-1 6.01 -1 5.02 -1 4 C-2.65 4 -4.3 4 -6 4 C-6 3.34 -6 2.68 -6 2 C-4.02 2 -2.04 2 0 2 C0 1.34 0 0.68 0 0 Z " fill="#4E6576" transform="translate(271,246)"/>
<path d="M0 0 C2.5 0.125 2.5 0.125 5 1 C6.3125 3.0625 6.3125 3.0625 7 5 C4.03 4.505 4.03 4.505 1 4 C0.34 5.32 -0.32 6.64 -1 8 C-1.33 7.01 -1.66 6.02 -2 5 C-2.99 5.495 -2.99 5.495 -4 6 C-2.84826645 3.53199953 -1.95216435 1.95216435 0 0 Z " fill="#E6EAED" transform="translate(275,245)"/>
<path d="M0 0 C2.0625 0.4375 2.0625 0.4375 4 1 C4 2.65 4 4.3 4 6 C2.125 6.625 2.125 6.625 0 7 C-0.66 6.34 -1.32 5.68 -2 5 C-1.46428571 1.46428571 -1.46428571 1.46428571 0 0 Z " fill="#CAD2D9" transform="translate(279,266)"/>
<path d="M0 0 C2.475 0.495 2.475 0.495 5 1 C5 2.65 5 4.3 5 6 C3.35 6.33 1.7 6.66 0 7 C0 4.69 0 2.38 0 0 Z " fill="#D6DCE1" transform="translate(297,266)"/>
<path d="M0 0 C1.46726798 3.81489674 0.43336419 6.29011622 -1 10 C0.32 10.33 1.64 10.66 3 11 C2.67 12.32 2.34 13.64 2 15 C0.02 13.02 -1.96 11.04 -4 9 C-3.71125 8.443125 -3.4225 7.88625 -3.125 7.3125 C-1.9586747 4.91505355 -0.9660119 2.48403061 0 0 Z " fill="#39586D" transform="translate(313,207)"/>
<path d="M0 0 C2.0625 0.4375 2.0625 0.4375 4 1 C4 2.65 4 4.3 4 6 C2.0625 6.5625 2.0625 6.5625 0 7 C-1 6 -1 6 -1.125 3.5 C-1 1 -1 1 0 0 Z " fill="#4C677B" transform="translate(330,248)"/>
<path d="M0 0 C2 0 4 0 6 0 C6 1.98 6 3.96 6 6 C4.02 6 2.04 6 0 6 C0 4.02 0 2.04 0 0 Z " fill="#E6ECF1" transform="translate(287,266)"/>
<path d="M0 0 C1.32 0 2.64 0 4 0 C4 1.65 4 3.3 4 5 C-0.455 6.485 -0.455 6.485 -5 8 C-5 7.34 -5 6.68 -5 6 C-3.35 5.67 -1.7 5.34 0 5 C0 3.35 0 1.7 0 0 Z " fill="#21506A" transform="translate(286,253)"/>
<path d="M0 0 C1.5625 1.25 1.5625 1.25 3 3 C2.6875 5.1875 2.6875 5.1875 2 7 C0.35 6.67 -1.3 6.34 -3 6 C-1.125 1.125 -1.125 1.125 0 0 Z " fill="#2B5375" transform="translate(299,182)"/>
<path d="M0 0 C3.96 1.98 3.96 1.98 8 4 C7.67 5.32 7.34 6.64 7 8 C5.02 7.34 3.04 6.68 1 6 C1.33 4.68 1.66 3.36 2 2 C1.34 2 0.68 2 0 2 C0 1.34 0 0.68 0 0 Z " fill="#21546D" transform="translate(384,119)"/>
<path d="M0 0 C1.5625 1.6875 1.5625 1.6875 3 4 C2.6875 6.75 2.6875 6.75 2 9 C0.68 8.67 -0.64 8.34 -2 8 C-1.01 7.34 -0.02 6.68 1 6 C0.01 6 -0.98 6 -2 6 C-2 4.35 -2 2.7 -2 1 C-1.34 0.67 -0.68 0.34 0 0 Z " fill="#1F4E6B" transform="translate(323,245)"/>
<path d="M0 0 C0.99 0.33 1.98 0.66 3 1 C3 2.65 3 4.3 3 6 C1.68 6.33 0.36 6.66 -1 7 C-1.625 4.625 -1.625 4.625 -2 2 C-1.34 1.34 -0.68 0.68 0 0 Z " fill="#415D73" transform="translate(310,248)"/>
<path d="M0 0 C5.19905543 2.17634879 7.76331134 4.52575392 11 9 C11 9.66 11 10.32 11 11 C10.01 11 9.02 11 8 11 C7.79375 10.2575 7.5875 9.515 7.375 8.75 C5.60854521 5.21709041 3.29070291 4.07457358 0 2 C0 1.34 0 0.68 0 0 Z " fill="#2F5267" transform="translate(408,133)"/>
<path d="M0 0 C0.66 0.33 1.32 0.66 2 1 C0.12459748 5.77375186 -3.20614205 8.2027298 -7.8125 10.25 C-8.534375 10.4975 -9.25625 10.745 -10 11 C-10 10.34 -10 9.68 -10 9 C-9.030625 8.731875 -8.06125 8.46375 -7.0625 8.1875 C-5.5465625 7.5996875 -5.5465625 7.5996875 -4 7 C-3.67 6.01 -3.34 5.02 -3 4 C-2.34 4 -1.68 4 -1 4 C-0.67 2.68 -0.34 1.36 0 0 Z " fill="#33556A" transform="translate(416,292)"/>
<path d="M0 0 C1.32 0 2.64 0 4 0 C4.33 1.98 4.66 3.96 5 6 C3.35 6.33 1.7 6.66 0 7 C0 4.69 0 2.38 0 0 Z " fill="#E0E6EC" transform="translate(260,266)"/>
<path d="M0 0 C0 0.66 0 1.32 0 2 C-4.62 2 -9.24 2 -14 2 C-14 1.67 -14 1.34 -14 1 C-4.58997722 -1.48063781 -4.58997722 -1.48063781 0 0 Z " fill="#37576C" transform="translate(304,223)"/>
<path d="M0 0 C0.66 0.33 1.32 0.66 2 1 C1.319375 1.5775 0.63875 2.155 -0.0625 2.75 C-1.0215625 3.86375 -1.0215625 3.86375 -2 5 C-1.78842197 7.39788436 -1.07207819 8.85584361 0 11 C-1.65 10.67 -3.3 10.34 -5 10 C-4.50769231 3.47692308 -4.50769231 3.47692308 -1.9375 1.0625 C-0.9784375 0.5365625 -0.9784375 0.5365625 0 0 Z " fill="#30506C" transform="translate(290,201)"/>
<path d="M0 0 C0 0.66 0 1.32 0 2 C-1.390625 3.25390625 -1.390625 3.25390625 -3.25 4.5625 C-3.85328125 4.99691406 -4.4565625 5.43132812 -5.078125 5.87890625 C-7.05581272 7.03255742 -8.76401078 7.55972779 -11 8 C-11.33 7.34 -11.66 6.68 -12 6 C-10.37829621 4.99466333 -8.75252763 3.99588093 -7.125 3 C-5.76761719 2.1646875 -5.76761719 2.1646875 -4.3828125 1.3125 C-2 0 -2 0 0 0 Z " fill="#345572" transform="translate(279,68)"/>
<path d="M0 0 C0.86625 -0.00515625 1.7325 -0.0103125 2.625 -0.015625 C5 0.25 5 0.25 8 2.25 C3.97967476 3.31420374 1.05844983 3.01095934 -3 2.25 C-4.66627298 2.21377667 -6.33405374 2.20100158 -8 2.25 C-4.76085771 0.09057181 -3.75140267 -0.02232978 0 0 Z " fill="#33576F" transform="translate(287,65.75)"/>
<path d="M0 0 C6.4 0.36923077 6.4 0.36923077 9.4375 3.5625 C9.953125 4.366875 10.46875 5.17125 11 6 C8 7 8 7 5 6 C5.33 5.01 5.66 4.02 6 3 C4.35 3 2.7 3 1 3 C0.67 2.01 0.34 1.02 0 0 Z " fill="#325C76" transform="translate(327,256)"/>
<path d="M0 0 C0.99 0 1.98 0 3 0 C3 0.66 3 1.32 3 2 C3.99 2.33 4.98 2.66 6 3 C4.35 3 2.7 3 1 3 C1 3.66 1 4.32 1 5 C1.66 5 2.32 5 3 5 C3 5.66 3 6.32 3 7 C1.68 6.67 0.36 6.34 -1 6 C-1.042721 4.33388095 -1.04063832 2.66617115 -1 1 C-0.67 0.67 -0.34 0.34 0 0 Z " fill="#647282" transform="translate(342,248)"/>
<path d="M0 0 C2.64 0 5.28 0 8 0 C4.87567603 2.52349243 1.61939504 4.27256146 -2 6 C-2 4.68 -2 3.36 -2 2 C-1.34 2 -0.68 2 0 2 C0 1.34 0 0.68 0 0 Z " fill="#2C586F" transform="translate(362,324)"/>
<path d="M0 0 C4.19360449 0.67097672 7.40334352 2.8558394 11 5 C10.34 5.66 9.68 6.32 9 7 C6.03 5.35 3.06 3.7 0 2 C0 1.34 0 0.68 0 0 Z " fill="#32536A" transform="translate(180,309)"/>
<path d="M0 0 C0.66 0.33 1.32 0.66 2 1 C2 3.31 2 5.62 2 8 C2.66 8 3.32 8 4 8 C4 8.66 4 9.32 4 10 C3.34 10 2.68 10 2 10 C2 10.66 2 11.32 2 12 C0.35 11.67 -1.3 11.34 -3 11 C-2.34 10.34 -1.68 9.68 -1 9 C-0.53993654 6.79749008 -0.53993654 6.79749008 -0.375 4.375 C-0.30023438 3.55773437 -0.22546875 2.74046875 -0.1484375 1.8984375 C-0.09945312 1.27195313 -0.05046875 0.64546875 0 0 Z " fill="#234C66" transform="translate(245,248)"/>
<path d="M0 0 C2.95409701 1.37154504 5.44008376 2.98863724 8 5 C7.67 6.32 7.34 7.64 7 9 C6.34 7.35 5.68 5.7 5 4 C2.36 4 -0.28 4 -3 4 C-2.01 3.67 -1.02 3.34 0 3 C0 2.01 0 1.02 0 0 Z " fill="#4C6A81" transform="translate(293,242)"/>
<path d="M0 0 C0.66 0 1.32 0 2 0 C2 2.97 2 5.94 2 9 C1.401875 8.360625 0.80375 7.72125 0.1875 7.0625 C-1.90810337 4.79689611 -1.90810337 4.79689611 -5 4 C-5 3.34 -5 2.68 -5 2 C-2.525 2.495 -2.525 2.495 0 3 C0 2.01 0 1.02 0 0 Z " fill="#5C7486" transform="translate(372,246)"/>
<path d="M0 0 C1.65 0 3.3 0 5 0 C1.53258866 2.95749791 -1.86873527 5.07848152 -6 7 C-6.33 6.34 -6.66 5.68 -7 5 C-5.5459375 4.5978125 -5.5459375 4.5978125 -4.0625 4.1875 C-3.051875 3.795625 -2.04125 3.40375 -1 3 C-0.67 2.01 -0.34 1.02 0 0 Z " fill="#315468" transform="translate(385,312)"/>
<path d="M0 0 C1.32 0.66 2.64 1.32 4 2 C4 2.99 4 3.98 4 5 C2.35 5.33 0.7 5.66 -1 6 C-1.042721 4.33388095 -1.04063832 2.66617115 -1 1 C-0.67 0.67 -0.34 0.34 0 0 Z " fill="#466175" transform="translate(205,248)"/>
<path d="M0 0 C0.66 0 1.32 0 2 0 C2.66 1.98 3.32 3.96 4 6 C2.02 6 0.04 6 -2 6 C-1.125 1.125 -1.125 1.125 0 0 Z " fill="#E9EDF1" transform="translate(314,266)"/>
<path d="M0 0 C5.445 1.485 5.445 1.485 11 3 C10.34 3.66 9.68 4.32 9 5 C6.8359375 4.7578125 6.8359375 4.7578125 4.375 4.125 C3.55773437 3.92132813 2.74046875 3.71765625 1.8984375 3.5078125 C1.27195313 3.34023438 0.64546875 3.17265625 0 3 C0 2.01 0 1.02 0 0 Z " fill="#3A5970" transform="translate(201,255)"/>
<path d="M0 0 C0.33 0 0.66 0 1 0 C1 3.63 1 7.26 1 11 C1.99 11.33 2.98 11.66 4 12 C2.02 12.66 0.04 13.32 -2 14 C-2.33 13.01 -2.66 12.02 -3 11 C-2.01 11 -1.02 11 0 11 C0 7.37 0 3.74 0 0 Z " fill="#3C586C" transform="translate(293,246)"/>
<path d="M0 0 C0.66 0.33 1.32 0.66 2 1 C-3.14285714 6.57142857 -3.14285714 6.57142857 -7 7 C-7.33 6.34 -7.66 5.68 -8 5 C-6.71475739 4.13619741 -5.42157581 3.28419631 -4.125 2.4375 C-3.04605469 1.72400391 -3.04605469 1.72400391 -1.9453125 0.99609375 C-1.30335938 0.66738281 -0.66140625 0.33867188 0 0 Z " fill="#37596E" transform="translate(240,89)"/>
<path d="M0 0 C2.475 0.495 2.475 0.495 5 1 C5 2.98 5 4.96 5 7 C3.0625 6.3125 3.0625 6.3125 1 5 C0.25 2.375 0.25 2.375 0 0 Z " fill="#395B74" transform="translate(255,265)"/>
<path d="M0 0 C3.35595828 0.59927826 5.37801226 1.84622436 8 4 C5.39417629 4.93065133 4.35801776 5.14917407 1.75 4.0625 C1.1725 3.711875 0.595 3.36125 0 3 C0 2.01 0 1.02 0 0 Z " fill="#32576C" transform="translate(400,129)"/>
<path d="M0 0 C1.98 0 3.96 0 6 0 C5.34 1.98 4.68 3.96 4 6 C3.34 6 2.68 6 2 6 C1.34 4.02 0.68 2.04 0 0 Z " fill="#E1E8EF" transform="translate(268,266)"/>
<path d="M0 0 C1.2065625 0.0309375 1.2065625 0.0309375 2.4375 0.0625 C1.4475 0.7225 0.4575 1.3825 -0.5625 2.0625 C-1.29593428 5.12806598 -1.29593428 5.12806598 -1.5625 8.0625 C-2.2225 8.0625 -2.8825 8.0625 -3.5625 8.0625 C-3.60491723 5.72955225 -3.60342937 3.39547433 -3.5625 1.0625 C-2.5625 0.0625 -2.5625 0.0625 0 0 Z " fill="#224A63" transform="translate(251.5625,263.9375)"/>
<path d="M0 0 C4.455 0.99 4.455 0.99 9 2 C8.67 3.32 8.34 4.64 8 6 C6.66402348 5.19185349 5.331275 4.37836819 4 3.5625 C3.2575 3.11003906 2.515 2.65757812 1.75 2.19140625 C1.1725 1.79824219 0.595 1.40507812 0 1 C0 0.67 0 0.34 0 0 Z " fill="#3C5C71" transform="translate(236,342)"/>
<path d="M0 0 C-2.61941217 1.74627478 -4.03824877 2.38722388 -7 3 C-7 2.34 -7 1.68 -7 1 C-8.32 0.67 -9.64 0.34 -11 0 C-7.01803543 -1.05404945 -4.01804691 -0.84098656 0 0 Z " fill="#345C72" transform="translate(286,257)"/>
<path d="M0 0 C0.99 0 1.98 0 3 0 C3 2.64 3 5.28 3 8 C2.01 7.67 1.02 7.34 0 7 C0 4.69 0 2.38 0 0 Z " fill="#334C68" transform="translate(238,248)"/>
<path d="M0 0 C2.97 0.495 2.97 0.495 6 1 C5.67 2.32 5.34 3.64 5 5 C2 4 2 4 0.8125 1.9375 C0.544375 1.298125 0.27625 0.65875 0 0 Z " fill="#1D4B65" transform="translate(273,257)"/>
<path d="M0 0 C2.475 0.495 2.475 0.495 5 1 C4.67 3.97 4.34 6.94 4 10 C3.34 10 2.68 10 2 10 C2 7.03 2 4.06 2 1 C1.34 0.67 0.68 0.34 0 0 Z " fill="#566E80" transform="translate(302,245)"/>
<path d="M0 0 C0.8353125 0.37125 0.8353125 0.37125 1.6875 0.75 C1.3575 1.41 1.0275 2.07 0.6875 2.75 C-1.96110427 3.34355614 -4.60447322 3.49209269 -7.3125 3.75 C-2.88173077 -0.31153846 -2.88173077 -0.31153846 0 0 Z " fill="#2D5168" transform="translate(201.3125,113.25)"/>
<path d="M0 0 C0.33 0 0.66 0 1 0 C1 2.64 1 5.28 1 8 C-0.32 8.33 -1.64 8.66 -3 9 C-2.67 7.68 -2.34 6.36 -2 5 C-1.67 5.33 -1.34 5.66 -1 6 C-0.67 4.02 -0.34 2.04 0 0 Z " fill="#748897" transform="translate(219,246)"/>
<path d="M0 0 C1.98 0.99 3.96 1.98 6 3 C6 3.99 6 4.98 6 6 C3.5625 5.25 3.5625 5.25 1 4 C0.1875 1.875 0.1875 1.875 0 0 Z " fill="#2F566F" transform="translate(372,112)"/>
<path d="M0 0 C2.97 1.65 5.94 3.3 9 5 C5 6 5 6 3 5 C3 4.34 3 3.68 3 3 C2.01 2.67 1.02 2.34 0 2 C0 1.34 0 0.68 0 0 Z " fill="#375970" transform="translate(303,72)"/>
</svg>
